<svg id="Grupo_49591" data-name="Grupo 49591" xmlns="http://www.w3.org/2000/svg" width="137.7" height="32.344" viewBox="0 0 137.7 32.344">
  <rect id="Rect치ngulo_1" data-name="Rect치ngulo 1" width="5.384" height="32.344" transform="translate(100.858 0)" fill="#adafe5"/>
  <rect id="Rect치ngulo_2" data-name="Rect치ngulo 2" width="5.384" height="25.376" transform="translate(107.902 6.968)" fill="#adafe5"/>
  <path id="Trazado_1" data-name="Trazado 1" d="M74.5,252.265a11.509,11.509,0,0,0-6.557,2.056v-9.153H62.558v20.074l.141-2.595a13.31,13.31,0,0,0-.192,2.241c0,6.972,5.369,12.623,11.993,12.623s11.993-5.652,11.993-12.623S81.122,252.265,74.5,252.265Zm0,19.184a6.569,6.569,0,1,1,6.233-6.561A6.4,6.4,0,0,1,74.5,271.449Z" transform="translate(-62.506 -245.168)" fill="#adafe5"/>
  <path id="Trazado_2" data-name="Trazado 2" d="M174.3,280.554c-.134-6.85-5.447-12.361-11.987-12.361-6.623,0-11.993,5.652-11.993,12.624s5.369,12.623,11.993,12.623a11.515,11.515,0,0,0,6.609-2.091v2.091H174.3V280.554Zm-11.987,6.824a6.569,6.569,0,1,1,6.233-6.561A6.4,6.4,0,0,1,162.31,287.377Z" transform="translate(-124.605 -261.096)" fill="#adafe5"/>
  <path id="Trazado_3" data-name="Trazado 3" d="M261.186,279.371c-.42-6.562-5.51-11.745-11.73-11.745a11.117,11.117,0,0,0-6.1,1.826v-2.375h-5.666v25.592h5.666V280.778l.007-.008c0-.037,0-.074-.007-.111v-.776a6.1,6.1,0,1,1,12.191,0v12.784h5.666v-13.3Z" transform="translate(-186.396 -260.324)" fill="#adafe5"/>
  <ellipse id="Elipse_1" data-name="Elipse 1" cx="2.775" cy="2.921" rx="2.775" ry="2.921" transform="translate(107.737 0.255)" fill="#adafe5"/>
  <path id="Trazado_4" data-name="Trazado 4" d="M336.135,287.377a6.569,6.569,0,0,1,0-13.121v-6.063c-6.623,0-11.993,5.652-11.993,12.624s5.369,12.623,11.993,12.623a11.932,11.932,0,0,0,10.633-6.787L342.005,283A6.26,6.26,0,0,1,336.135,287.377Z" transform="translate(-247.531 -261.096)" fill="#adafe5"/>
  <path id="Trazado_5" data-name="Trazado 5" d="M467.492,287.377a6.569,6.569,0,0,1,0-13.121v-6.063c-6.624,0-11.993,5.652-11.993,12.624s5.369,12.623,11.993,12.623a11.931,11.931,0,0,0,10.633-6.787L473.362,283A6.261,6.261,0,0,1,467.492,287.377Z" transform="translate(-340.425 -261.096)" fill="#adafe5"/>
</svg>
