<svg id="Grupo_49658" data-name="Grupo 49658" xmlns="http://www.w3.org/2000/svg" width="75.426" height="77.519" viewBox="0 0 75.426 77.519">
  <path id="Trazado_10" data-name="Trazado 10" d="M288.794,148.9a6.035,6.035,0,0,0-2.748-3.667,5.068,5.068,0,0,0-6.074.239,4.509,4.509,0,0,0-1.185,1.65.994.994,0,0,1-.15.209l-.167.176c-.1.13-.334.292-.441.408-.15.153-.231.176-.409.375a7.02,7.02,0,0,0-3.2-3.07,11.1,11.1,0,0,0-5.753-1.066l-10.363.616-13.623.64-3.054.123-.613,4.587a8.4,8.4,0,0,0-1.9-1.863,10.955,10.955,0,0,0-6.965-1.925l-10,.47L217.9,180.139l-.027.325v.4a5.8,5.8,0,0,0,.182,1.5l.085.362.072.148a5.594,5.594,0,0,0,.854,1.555,5.3,5.3,0,0,0,.553.605l.4.352a3,3,0,0,0,.279.176,13.045,13.045,0,0,0-3.59,7.017l-2.81,16.783a10.7,10.7,0,0,0,2.014,8.6,9.4,9.4,0,0,0,7.677,3.675,11.748,11.748,0,0,0,7.841-3.114,13.49,13.49,0,0,0,1.905-2.1,9.339,9.339,0,0,0,7.649,3.695,11.443,11.443,0,0,0,6.415-2l.714-.556a10.365,10.365,0,0,0,1.07-.959l1.75-1.8v-.01c.022.03.038.06.062.09a9.341,9.341,0,0,0,7.667,3.714,11.622,11.622,0,0,0,7.316-2.674,5.215,5.215,0,0,0,3.243,3.54,4.671,4.671,0,0,0,1.638.273h9.815a5.145,5.145,0,0,0,4.988-4.409l.38-2.277a5.709,5.709,0,0,0-.473-3.487,5.042,5.042,0,0,0-4.5-2.873h-1.546l3.318-19.808a5.563,5.563,0,0,0-.446-3.269,4.67,4.67,0,0,0,2.34-3.448l2.872-21.741a5.387,5.387,0,0,0-.657-2.569c.191-.232,1.011-.938,1.17-1.2A7.08,7.08,0,0,0,288.794,148.9Z" transform="translate(-213.691 -144.113)" fill="#6770c6"/>
  <path id="Trazado_11" data-name="Trazado 11" d="M257.824,489.139h2.661a1.313,1.313,0,0,0,1.272-1.124l.45-2.687a6.786,6.786,0,0,0-1.228-5.482,5.806,5.806,0,0,0-4.847-2.287,8.138,8.138,0,0,0-5.516,2.233,9.127,9.127,0,0,0-3.027,5.41l-2.812,16.785a6.741,6.741,0,0,0,1.237,5.484,5.853,5.853,0,0,0,4.847,2.273,8.142,8.142,0,0,0,5.489-2.215,9.085,9.085,0,0,0,3.035-5.408l.522-3.119a1.412,1.412,0,0,0-.283-1.11,1.267,1.267,0,0,0-.989-.486h-2.661a1.313,1.313,0,0,0-1.272,1.124l-.57,3.408a2.746,2.746,0,0,1-.934,1.657,2.474,2.474,0,0,1-1.692.683,1.621,1.621,0,0,1-1.362-.634,1.909,1.909,0,0,1-.334-1.573l2.818-16.818a2.8,2.8,0,0,1,.929-1.668,2.422,2.422,0,0,1,1.672-.69,1.649,1.649,0,0,1,1.386.642,1.919,1.919,0,0,1,.349,1.583l-.408,2.43a1.412,1.412,0,0,0,.285,1.1A1.268,1.268,0,0,0,257.824,489.139Z" transform="translate(-240.98 -436.067)" fill="#adafe5"/>
  <path id="Trazado_12" data-name="Trazado 12" d="M403.658,465.434a8.1,8.1,0,0,0-5.478,2.233,9.148,9.148,0,0,0-3.037,5.424l-2.8,16.714a6.807,6.807,0,0,0,1.225,5.5,5.789,5.789,0,0,0,4.829,2.287,8.154,8.154,0,0,0,5.526-2.233,9.148,9.148,0,0,0,3.037-5.424l2.8-16.715a6.77,6.77,0,0,0-1.242-5.5A5.85,5.85,0,0,0,403.658,465.434Zm.822,7.565-2.81,16.772a2.756,2.756,0,0,1-.919,1.642,2.416,2.416,0,0,1-1.672.681,1.636,1.636,0,0,1-1.372-.635,1.869,1.869,0,0,1-.351-1.554l2.81-16.772a2.8,2.8,0,0,1,2.608-2.321,1.635,1.635,0,0,1,1.372.625,1.9,1.9,0,0,1,.334,1.568Z" transform="translate(-371.107 -425.455)" fill="#adafe5"/>
  <path id="Trazado_13" data-name="Trazado 13" d="M558.206,455.465a5.85,5.85,0,0,0-4.861-2.287,8.1,8.1,0,0,0-5.478,2.233,9.148,9.148,0,0,0-3.035,5.424l-2.8,16.715a6.807,6.807,0,0,0,1.225,5.5,5.79,5.79,0,0,0,4.829,2.287,8.154,8.154,0,0,0,5.526-2.233,9.146,9.146,0,0,0,3.037-5.424l2.8-16.714A6.779,6.779,0,0,0,558.206,455.465Zm-4.038,5.278-2.808,16.772a2.756,2.756,0,0,1-.919,1.642,2.417,2.417,0,0,1-1.671.681,1.636,1.636,0,0,1-1.372-.635,1.87,1.87,0,0,1-.351-1.554l2.81-16.773a2.8,2.8,0,0,1,2.608-2.321,1.635,1.635,0,0,1,1.372.625,1.9,1.9,0,0,1,.332,1.566Z" transform="translate(-503.106 -414.717)" fill="#adafe5"/>
  <path id="Trazado_14" data-name="Trazado 14" d="M691.279,492.723l3.783-22.577a1.539,1.539,0,0,0-.308-1.212,1.381,1.381,0,0,0-1.081-.53h-2.262a1.432,1.432,0,0,0-1.389,1.232l-4.764,28.441a1.542,1.542,0,0,0,.309,1.212,1.383,1.383,0,0,0,1.08.53h9.846a1.432,1.432,0,0,0,1.389-1.232l.4-2.382a1.541,1.541,0,0,0-.308-1.212,1.382,1.382,0,0,0-1.081-.53h-4.222a1.382,1.382,0,0,1-1.08-.529,1.54,1.54,0,0,1-.309-1.211Z" transform="translate(-629.499 -428.053)" fill="#adafe5"/>
  <path id="Trazado_15" data-name="Trazado 15" d="M279.8,223.137l3.823-30.174,6.947-.327a7.479,7.479,0,0,1,4.777,1.284,5.63,5.63,0,0,1,2.2,3.846,11.41,11.41,0,0,1,0,3.4,9.229,9.229,0,0,1-2.3,5.268,6.2,6.2,0,0,1-1.782,1.33,4.28,4.28,0,0,1,2.312,2.314,8.281,8.281,0,0,1,.669,3.128,13.476,13.476,0,0,1-.115,2.234,12.8,12.8,0,0,1-1.757,5.243,8.85,8.85,0,0,1-2.771,2.78,7.569,7.569,0,0,1-3.659,1.295l-6.658.313a1.59,1.59,0,0,1-1.275-.554,1.774,1.774,0,0,1-.415-1.385Zm7.159-17.256,1.944-.091a3.558,3.558,0,0,0,3.188-2.344,7.285,7.285,0,0,0,.528-2.043,3.877,3.877,0,0,0-.545-2.991,2.421,2.421,0,0,0-2.128-.848l-1.944.091Zm-1.805,14.251,1.944-.091a4.131,4.131,0,0,0,3.6-2.7,6.362,6.362,0,0,0,.573-2.011,5.652,5.652,0,0,0-.5-3.89,2.587,2.587,0,0,0-2.46-1.008l-1.944.092Z" transform="translate(-271.954 -186.573)" fill="#adafe5"/>
  <path id="Trazado_16" data-name="Trazado 16" d="M444.4,209.771l3.859-28.854,13.235-.623-.623,4.662-8.587.4-1.133,8.477,6.272-.3L456.8,198.2l-6.27.294-1.132,8.459,8.587-.4L457.6,209.4a2.14,2.14,0,0,1-1.982,1.9l-9.528.447a1.6,1.6,0,0,1-1.287-.567,1.788,1.788,0,0,1-.406-1.405Z" transform="translate(-417.107 -175.768)" fill="#adafe5"/>
  <path id="Trazado_17" data-name="Trazado 17" d="M596.573,175.114A5.915,5.915,0,0,1,601.982,177a6.872,6.872,0,0,1,.907,5.146l-.6,4.492a8.821,8.821,0,0,1-3.223,5.66l1.914,14.061a1.335,1.335,0,0,1-.5,1.24,1.187,1.187,0,0,1-1.275.113l-3.51-1.83-1.279-11.549c-.137.018-.277.03-.424.037l-2.666.125-1.384,10.352a1.547,1.547,0,0,1-1.433,1.371l-1.5.07a1.529,1.529,0,0,1-1.227-.538,1.707,1.707,0,0,1-.392-1.337l3.873-28.956Zm1.775,7.328q.361-2.7-2.285-2.571l-2.8.132-1.322,9.883,2.8-.132a3.031,3.031,0,0,0,1.984-.88,3.179,3.179,0,0,0,1.02-1.927Z" transform="translate(-541.433 -171.23)" fill="#adafe5"/>
  <path id="Trazado_18" data-name="Trazado 18" d="M747.092,278.247l-2.546.241c-.714.067-1.3-.331-1.234-.832l2.957-20.782a1.085,1.085,0,0,1,1.05-.762l2.546-.241c.714-.067,1.3.331,1.233.832l-2.957,20.782A1.087,1.087,0,0,1,747.092,278.247Z" transform="translate(-680.711 -241.945)" fill="#adafe5"/>
  <path id="Trazado_19" data-name="Trazado 19" d="M775.034,171.658a2.981,2.981,0,0,0-1.157-1.86,1.8,1.8,0,0,0-2.088.021,5.228,5.228,0,0,0-.876,1.247c-.435.655-1.07,1.147-1.549,1.77a2.179,2.179,0,0,0-.447,2.19,2.4,2.4,0,0,0,1.56,1.066,4.865,4.865,0,0,0,2.432.2C774.924,175.854,775.427,173.417,775.034,171.658Z" transform="translate(-703.165 -166.3)" fill="#adafe5"/>
</svg>
