<svg id="Componente_180_3" data-name="Componente 180 – 3" xmlns="http://www.w3.org/2000/svg" width="106.951" height="65.383" viewBox="0 0 106.951 65.383">
  <g id="Grupo_35829" data-name="Grupo 35829">
    <g id="Grupo_35831" data-name="Grupo 35831">
      <path id="Trazado_112437" data-name="Trazado 112437" d="M103.123,14.116A22.005,22.005,0,0,0,91.586,3.208,40.9,40.9,0,0,0,80.2.471,91.761,91.761,0,0,0,69.653,0c-2.146.078-4.3.117-6.488.247-2.977.144-5.955.326-8.932.574-2.7.222-5.409.417-8.113.639-3,.247-6,.534-9.006.756-3.772.286-7.543.56-11.277,1.147a56.179,56.179,0,0,0-13.15,3.585A23.076,23.076,0,0,0,4.4,12.514,16.454,16.454,0,0,0,.033,23.5,67.4,67.4,0,0,0,.74,35.635,49.71,49.71,0,0,0,4.052,47.729a15.813,15.813,0,0,0,11.859,9.788c2.158.469,4.292.964,6.389,1.616a41.722,41.722,0,0,1,8.61,3.571c1.277.73,2.592,1.421,3.932,2.059.4.183.782.378,1.191.521.719.247,1.167.026,1.34-.652a8.981,8.981,0,0,0,.187-1.16,13.9,13.9,0,0,1,.558-2.828,2.72,2.72,0,0,1,2.407-1.877,13.714,13.714,0,0,1,2.307-.144c1.638.052,3.263.091,4.9.169,2.023.091,4.044.208,6.067.313a37.839,37.839,0,0,0,4.714.065c2.518-.182,5.037-.39,7.555-.56,2.94-.208,5.88-.43,8.808-.82a121.388,121.388,0,0,0,15.9-3.219c6.575-1.812,11.252-5.617,13.659-11.6a32.837,32.837,0,0,0,1.91-18.82,39.7,39.7,0,0,0-3.225-10.036m-73.739,25.3a2.687,2.687,0,0,1-.843,1.46A11.634,11.634,0,0,1,20.4,45.279a8.948,8.948,0,0,1-5.868-1.407,4.288,4.288,0,0,1-1.675-2.02,1.32,1.32,0,0,1-.149-.913,5.422,5.422,0,0,1,.012-1.551c.4-2.059,1.8-2.959,3.957-2.528a9.1,9.1,0,0,0,4.231.066,5.538,5.538,0,0,0,1.638-.743,3.006,3.006,0,0,0,.521-.456,1.161,1.161,0,0,0,.111-1.525c-.4-.521-.806-.234-1.216-.012A7.551,7.551,0,0,1,11.595,31.36a14.593,14.593,0,0,1-1.5-3.688,14.658,14.658,0,0,1,.571-9.411c1.8-4.574,6.166-6.4,10.457-4.366a1.779,1.779,0,0,0,2.2-.2,4.519,4.519,0,0,1,2.543-1.1c2.208-.169,3.8,1.226,4.168,3.675a51.73,51.73,0,0,1,.36,5.187c.174,3.441.273,6.9.4,10.336a14.718,14.718,0,0,1-1.4,7.612M75.322,20.307a12.431,12.431,0,0,1,.893-4.353,9.438,9.438,0,0,1,7.878-5.969,10.593,10.593,0,0,1,6.662,1.2,9.035,9.035,0,0,1,4.813,8.133c.074,2.047-.844,3.024-2.779,3.194-2.407.2-4.8.456-7.207.678a3.642,3.642,0,0,0-.372.066c-.335.051-.608.169-.658.573a.771.771,0,0,0,.5.874,4.765,4.765,0,0,0,3.039.2c.967-.221,1.886-.586,2.879-.717a2.606,2.606,0,0,1,2.965,1.329,3.662,3.662,0,0,1-.062,3.975,5.511,5.511,0,0,1-3.3,2.255,15.807,15.807,0,0,1-3.932.508,11.874,11.874,0,0,1-7.146-2.2c-3.164-2.4-4.33-5.774-4.168-9.736m.935,17.483a1.182,1.182,0,0,1,.424-.774,2.288,2.288,0,0,1,1.3-.393,2.216,2.216,0,0,1,1.33.193,1.175,1.175,0,0,1,.515.712,5.354,5.354,0,0,1,.149.948l.484,7.045a5.224,5.224,0,0,1-.018.938,1.157,1.157,0,0,1-.413.772,2.351,2.351,0,0,1-1.311.383,2.268,2.268,0,0,1-1.341-.193,1.121,1.121,0,0,1-.515-.712,5.839,5.839,0,0,1-.136-.928l-.487-7.067a5.085,5.085,0,0,1,.019-.927m-.225-3.132a5.9,5.9,0,0,1-.137-.927,5.238,5.238,0,0,1,.017-.949,1.14,1.14,0,0,1,.425-.762,2.361,2.361,0,0,1,1.3-.382,2.2,2.2,0,0,1,1.33.193,1.177,1.177,0,0,1,.516.712,5.336,5.336,0,0,1,.128,1.864,1.156,1.156,0,0,1-.413.772,2.345,2.345,0,0,1-1.312.383,2.259,2.259,0,0,1-1.34-.192,1.117,1.117,0,0,1-.515-.713m-16.8-22.745a3.6,3.6,0,0,1,1.489,1.017c.88.977,1.1,1,2.233.326a7.886,7.886,0,0,1,4.7-1.368c2.766.2,4.5,1.851,5.5,4.431a24.147,24.147,0,0,1,1.1,5.644,53.383,53.383,0,0,1,.435,5.787,9.981,9.981,0,0,1-.1,3.037,3.988,3.988,0,0,1-7.282.977,8.392,8.392,0,0,1-.843-3.3c-.26-2.411-.484-4.822-.756-7.221-.161-1.459-.918-2.019-2.072-1.642-.707.234-1.054.913-.967,1.955q.317,3.754.658,7.507a6.81,6.81,0,0,1-.434,3.375,3.952,3.952,0,0,1-7.6-1.055c-.384-2.672-.669-5.37-.906-8.055-.2-2.19-.36-4.393-.558-6.582-.31-3.362,2.456-5.838,5.408-4.835M34.26,32.936a14.893,14.893,0,0,1-2.432-9.971,11.224,11.224,0,0,1,1.377-4.809c2.047-3.637,5.843-5.018,9.552-3.4A1.821,1.821,0,0,0,45,14.442a4.527,4.527,0,0,1,2.494-1.2,3.693,3.693,0,0,1,4.094,2.7,20.29,20.29,0,0,1,.732,4.132c.211,1.538.422,3.076.558,4.627.137,1.5.161,3,.236,4.483A11.662,11.662,0,0,1,53,31.972a3.763,3.763,0,0,1-4.95,3.05,5.568,5.568,0,0,1-1.476-.652,1.43,1.43,0,0,0-1.873.169,6.776,6.776,0,0,1-4.59,1.642,7.08,7.08,0,0,1-5.855-3.245M52.236,48.581a1.184,1.184,0,0,1-.424.783,2.321,2.321,0,0,1-1.321.394,2.193,2.193,0,0,1-1.341-.2,1.16,1.16,0,0,1-.517-.723,5.909,5.909,0,0,1-.136-.927l-.243-3.534a2.718,2.718,0,0,0-.172-.847,1.059,1.059,0,0,0-.365-.484.842.842,0,0,0-.559-.133.972.972,0,0,0-.556.2.845.845,0,0,0-.277.511,3.615,3.615,0,0,0-.029.928l.243,3.533a5.307,5.307,0,0,1-.019.939,1.18,1.18,0,0,1-.423.783,2.329,2.329,0,0,1-1.321.394,2.2,2.2,0,0,1-1.342-.2,1.161,1.161,0,0,1-.516-.724,5.91,5.91,0,0,1-.136-.926l-.243-3.534a3.086,3.086,0,0,0-.163-.859.953.953,0,0,0-.355-.486.923.923,0,0,0-.579-.12.828.828,0,0,0-.6.264,1.151,1.151,0,0,0-.239.585,3.722,3.722,0,0,0-.02.764l.247,3.577a5.3,5.3,0,0,1-.019.938,1.141,1.141,0,0,1-.424.773,2.407,2.407,0,0,1-1.322.384,2.272,2.272,0,0,1-1.34-.192,1.129,1.129,0,0,1-.516-.712,6.027,6.027,0,0,1-.136-.928l-.488-7.088a5.171,5.171,0,0,1,.018-.95A1.132,1.132,0,0,1,37.023,40a2.393,2.393,0,0,1,1.321-.384,1.989,1.989,0,0,1,1.378.277,1.265,1.265,0,0,1,.417.685,4.712,4.712,0,0,1,.288-.379,2.976,2.976,0,0,1,.7-.586,2.108,2.108,0,0,1,.975-.3,3.818,3.818,0,0,1,1.188.084,3.006,3.006,0,0,1,1.016.458,3.513,3.513,0,0,1,.835.819,6.728,6.728,0,0,1,.575-.7,4.154,4.154,0,0,1,.894-.722,2.668,2.668,0,0,1,1.208-.375,3.321,3.321,0,0,1,2.118.493,3.942,3.942,0,0,1,1.429,1.787,8.861,8.861,0,0,1,.65,2.958l.243,3.533a5.309,5.309,0,0,1-.018.939m8.363.225a5.135,5.135,0,0,1-1.861.522,5,5,0,0,1-1.947-.255,6.006,6.006,0,0,1-1.864-1.013,5.48,5.48,0,0,1-2.071-4.016,5.788,5.788,0,0,1,.28-2.265A6.01,6.01,0,0,1,54.2,39.858a5.745,5.745,0,0,1,1.647-1.378,4.951,4.951,0,0,1,2.063-.614,5.123,5.123,0,0,1,2.818.56A5.818,5.818,0,0,1,60.6,48.806m3.409,5.857c-.545,0-.868-.287-.868-.756a.763.763,0,0,1,.843-.795.832.832,0,0,1,.93.782.89.89,0,0,1-.906.769M65.594,48.3a1.121,1.121,0,0,1-.516-.713,5.882,5.882,0,0,1-.137-.926l-.491-7.132a4.889,4.889,0,0,1,.021-.917,1.094,1.094,0,0,1,.426-.741,2.432,2.432,0,0,1,1.3-.371,2.5,2.5,0,0,1,1.243.134,1.018,1.018,0,0,1,.523.516,1.783,1.783,0,0,1,.13.558,1.382,1.382,0,0,1,.095-.161,2.8,2.8,0,0,1,.639-.648,4.127,4.127,0,0,1,.878-.5,2.924,2.924,0,0,1,.907-.233,3.852,3.852,0,0,1,1.844.274,3.65,3.65,0,0,1,1.389,1.06,5.418,5.418,0,0,1,.914,1.685,8.289,8.289,0,0,1,.417,2.146l.245,3.556a5.222,5.222,0,0,1-.018.938,1.151,1.151,0,0,1-.414.772,2.342,2.342,0,0,1-1.311.383,2.305,2.305,0,0,1-1.361-.19,1.16,1.16,0,0,1-.526-.712,5.159,5.159,0,0,1-.146-.926L71.4,42.614a1.866,1.866,0,0,0-.233-.832,1.238,1.238,0,0,0-.532-.493,1.564,1.564,0,0,0-.807-.125,1.586,1.586,0,0,0-.781.256,1.366,1.366,0,0,0-.489.582,1.733,1.733,0,0,0-.129.837l.245,3.556a5.308,5.308,0,0,1-.019.939,1.15,1.15,0,0,1-.413.771,2.344,2.344,0,0,1-1.311.383,2.257,2.257,0,0,1-1.34-.192m33.844-7.409a.928.928,0,0,0-.174.613,1.5,1.5,0,0,1-.334,1.108,9.821,9.821,0,0,0-.881,1.486,13.5,13.5,0,0,1-5.992,5.383,42.636,42.636,0,0,1-10.284,3.414,75.5,75.5,0,0,1-11.859,1.446h-1.65a.674.674,0,0,1-.769-.561A.722.722,0,0,1,68,52.9a4.453,4.453,0,0,1,1.253-.169A73.363,73.363,0,0,0,85.78,50.363a21.194,21.194,0,0,0,10.123-5.7A10.561,10.561,0,0,0,98.5,40.809a5.738,5.738,0,0,0,.187-1.2,1.262,1.262,0,0,1,.582-.952c.224-.144.322-.156.409.13a2.407,2.407,0,0,1-.236,2.1" transform="translate(0 -0.001)" fill="#adafe5"/>
      <path id="Trazado_112438" data-name="Trazado 112438" d="M74.1,50.525a1.849,1.849,0,0,0-.922-.148,1.561,1.561,0,0,0-.81.291,1.726,1.726,0,0,0-.555.674,1.841,1.841,0,0,0-.164.937,1.7,1.7,0,0,0,.36,1.019,1.606,1.606,0,0,0,.718.5,1.887,1.887,0,0,0,.713.11,1.958,1.958,0,0,0,.7-.217A1.633,1.633,0,0,0,75.033,52a1.881,1.881,0,0,0-.281-.916,1.52,1.52,0,0,0-.65-.56" transform="translate(-15.019 -8.545)" fill="#adafe5"/>
      <path id="Trazado_112439" data-name="Trazado 112439" d="M24.125,23.292a1.661,1.661,0,0,0-1.625,1.5,12.988,12.988,0,0,0-.335,2.176,7.611,7.611,0,0,0,.745,4.158A1.853,1.853,0,0,0,24.87,32.3a1.969,1.969,0,0,0,1.6-1.446,6.328,6.328,0,0,0,.385-2.542,9.632,9.632,0,0,0-.608-3.754,1.792,1.792,0,0,0-2.121-1.264" transform="translate(-4.64 -3.95)" fill="#adafe5"/>
      <path id="Trazado_112440" data-name="Trazado 112440" d="M53,33.369a1.758,1.758,0,0,0,1.65-1.5,7.327,7.327,0,0,0,.273-2.19,9.36,9.36,0,0,0-.745-3.91,2.352,2.352,0,0,0-1.315-1.382c-1.19-.378-2.22.379-2.518,1.877a10.029,10.029,0,0,0,.62,5.9A1.752,1.752,0,0,0,53,33.369" transform="translate(-10.512 -4.121)" fill="#adafe5"/>
      <path id="Trazado_112441" data-name="Trazado 112441" d="M106.011,22.52a22.427,22.427,0,0,1,2.319-.286c.733.012,1.031-.4.931-1.173a1.872,1.872,0,0,0-2.345-1.59,1.957,1.957,0,0,0-1.725,2.372.723.723,0,0,0,.82.678" transform="translate(-22.042 -3.295)" fill="#adafe5"/>
      <path id="Trazado_112442" data-name="Trazado 112442" d="M50.805,49.369a2.509,2.509,0,0,0-.089-.507c-.09.13-.179.272-.269.426Z" transform="translate(-10.575 -8.289)" fill="#adafe5"/>
      <path id="Trazado_112443" data-name="Trazado 112443" d="M86.187,46.977a.731.731,0,0,1-.054-.333c0-.01,0-.022,0-.032a.863.863,0,0,0-.1.507Z" transform="translate(-18.033 -7.907)" fill="#adafe5"/>
    </g>
  </g>
</svg>
