<svg id="Laika" xmlns="http://www.w3.org/2000/svg" xmlns:xlink="http://www.w3.org/1999/xlink" width="66.114" height="73.647" viewBox="0 0 66.114 73.647">
  <defs>
    <clipPath id="clip-path">
      <rect id="Rectángulo_518" data-name="Rectángulo 518" width="66.114" height="73.647" fill="#adafe5"/>
    </clipPath>
  </defs>
  <g id="Grupo_44698" data-name="Grupo 44698" style="mix-blend-mode: normal;isolation: isolate">
    <g id="Grupo_44697" data-name="Grupo 44697" clip-path="url(#clip-path)">
      <path id="Trazado_61094" data-name="Trazado 61094" d="M35.975.146c-.105.887-.072.94.781,1.172A10.156,10.156,0,0,1,41.916,4.4c.761.869,1.54,1.722,2.317,2.577a.46.46,0,0,0,.359.143C42.621,4.371,40.75,1.534,37.512,0c.342.109.693.2,1.022.333a9.47,9.47,0,0,1,3.213,2.36A30.267,30.267,0,0,1,48,12.6a10.011,10.011,0,0,1,.382,1.442c.068.31.183.437.53.371a23.774,23.774,0,0,1,10.536.525,5.811,5.811,0,0,1,4.242,4.1c.155.5.371.61.814.431a.539.539,0,0,1,.116-.028c.42-.065.852-.5,1.255,0a2.6,2.6,0,0,1,.027,2.132.968.968,0,0,1-.753.146,11.974,11.974,0,0,1-1.386-.508c-1.837,3.275-4.81,3.9-8.115,3.65-2-.151-3.984-.491-5.979-.714a.589.589,0,0,0-.439.363,45.925,45.925,0,0,1-3.37,10.135,2.15,2.15,0,0,1-.315.641c-.688.679-.277,1.239.105,1.865a52.081,52.081,0,0,1,5.772,12.575,25.453,25.453,0,0,1,.788,3.187,5.285,5.285,0,0,1-3.43,5.692,5.209,5.209,0,0,1-5.959-1.863,47.62,47.62,0,0,1-2.6-4.091,50.894,50.894,0,0,1-4.372-10.59c-.11-.372-.246-.546-.706-.5-1.881.2-3.766.439-5.652.468-1.926.03-3.857-.169-5.785-.271-.215-.011-.428-.047-.555-.062-.653,2.376-1.259,4.7-1.935,7.008a29.275,29.275,0,0,1-3.476,7.525,5.616,5.616,0,0,1-5.659,2.64,4.516,4.516,0,0,1-3.512-3.8,16.5,16.5,0,0,1,.275-7.244,30.881,30.881,0,0,1,5.269-11.886c.289-.383.111-.535-.177-.756a25,25,0,0,1-7.369-9.369,4.778,4.778,0,0,1-.274-4.263,6.478,6.478,0,0,1,.657-1.136.654.654,0,0,0-.071-.958c-.279-.284-.407-.813-1.026-.556-2.142.887-3.143-.042-4.141-1.3A12.988,12.988,0,0,1,.283,15.333,2.447,2.447,0,0,1,.53,12.671a5.559,5.559,0,0,1,3.3-2.215,2.242,2.242,0,0,1,2.21.6,16.884,16.884,0,0,1,2.2,2.877,2.885,2.885,0,0,1-.432,3.5c-.252.307-.582.575-.219,1.027.347.431.574.905,1.332.645a4.466,4.466,0,0,1,4.818,1.221A24.592,24.592,0,0,1,20.323,30.6c.092.29.146.455.556.412,2.573-.271,5.147-.56,7.729-.706,1.978-.112,3.968-.022,6.042-.022.191-.676.394-1.505.661-2.314a21.906,21.906,0,0,1,4.491-8.1c.411-.449.1-.613-.259-.77a25.536,25.536,0,0,1-7.956-5.846A10.771,10.771,0,0,1,28.96,9.291,4.965,4.965,0,0,1,30.01,4.054c.927-1.039,1.939-2,2.953-2.96A3.063,3.063,0,0,1,35.648.056a3.367,3.367,0,0,1,.327.09M18.307,28.481l.106-.055a2.371,2.371,0,0,0-.094-.258,32.651,32.651,0,0,0-3.76-5.883,8.266,8.266,0,0,0-3.025-2.573,1.409,1.409,0,0,0-.741-.146.727.727,0,0,0-.5.412.7.7,0,0,0,.237.584c.26.205.621.278.894.471a21.482,21.482,0,0,1,3.2,2.363,31.627,31.627,0,0,1,2.716,3.627c.341.472.646.97.967,1.456M41.93,7.931l.286-.327a2.8,2.8,0,0,1-.54-.235c-1.136-.806-2.235-1.669-3.4-2.43A11.044,11.044,0,0,0,33.74,3.054a3.472,3.472,0,0,0-1.322.172c-.137.038-.282.337-.277.513a.593.593,0,0,0,.361.4,2.473,2.473,0,0,0,.822.094A11.02,11.02,0,0,1,39.939,6.6c.652.459,1.327.886,1.991,1.328m20.625,11.1a5.257,5.257,0,0,0-3.248-3.275,6.942,6.942,0,0,0-3.773-.655.8.8,0,0,0-.557.445c-.121.382.2.5.522.547.079.012.16,0,.238.016,1.191.2,2.4.341,3.568.623a4.941,4.941,0,0,1,2.652,1.516c.214.247.4.521.6.783M20.311,45.659l.129.057a2.04,2.04,0,0,0,.258-.374,16.074,16.074,0,0,0,1.369-6.38,4.75,4.75,0,0,0-.351-1.559c-.088-.227-.483-.538-.648-.491-.422.119-.414.506-.25.887a7.634,7.634,0,0,1,.215,4.986c-.238.959-.482,1.916-.722,2.874m5.805-14.712c0,.045-.005.09-.008.135a4.276,4.276,0,0,0,.5.1c1.25.089,2.5.145,3.748.264.788.075,1.565.264,2.352.354.306.035.742.207.772-.419.025-.525-.171-.738-.677-.71-.139.008-.279-.011-.418-.006q-3.037.1-6.072.211a.66.66,0,0,0-.2.076M46.263,41.43c.05-.109.084-.147.078-.177a1.638,1.638,0,0,0-.092-.344,24.226,24.226,0,0,0-3.711-6.019,1.87,1.87,0,0,0-.649-.506.684.684,0,0,0-.564.109c-.067.048-.015.356.067.5a2.241,2.241,0,0,0,.46.464,18.039,18.039,0,0,1,3.394,4.138c.353.586.663,1.2,1.016,1.839M7.741,14.175A5.575,5.575,0,0,0,5.56,11.269a2.134,2.134,0,0,0-.972-.363.9.9,0,0,0-.714.423c-.158.418.227.627.572.646a3.967,3.967,0,0,1,2.8,1.719c.117.137.258.254.492.481" transform="translate(0 0)" fill="#adafe5"/>
      <path id="Trazado_61095" data-name="Trazado 61095" d="M62.654,121.991a1.877,1.877,0,0,1,.209-.506q1.949-2.352,3.922-4.684a4.969,4.969,0,0,1,.582-.6.81.81,0,0,1,1.095.039.83.83,0,0,1,.3,1.058,1.972,1.972,0,0,1-.308.51c-.965,1.17-1.92,2.348-2.92,3.487a.55.55,0,0,0-.027.851c1.018,1.381,2.012,2.78,2.993,4.187.461.661.406,1.221-.092,1.58-.442.319-1.054.107-1.506-.534q-1.43-2.026-2.85-4.052a3.542,3.542,0,0,0-1.694,2.421,9.815,9.815,0,0,1-.124,1.545.862.862,0,0,1-.863.775.919.919,0,0,1-.921-.793,4.543,4.543,0,0,1-.092-.948q-.01-4.466,0-8.931a3.043,3.043,0,0,1,.1-.706.784.784,0,0,1,.886-.641,1.476,1.476,0,0,1,.859.6,1.766,1.766,0,0,1,.155.926c.014,1.395.006,2.79.006,4.186l.283.228" transform="translate(-28.344 -54.477)" fill="#adafe5"/>
      <path id="Trazado_61096" data-name="Trazado 61096" d="M88.68,127.369a3.994,3.994,0,0,1-.792.709.7.7,0,0,1-.951-.391c-.363-.685-.692-1.391-.993-2.106a.6.6,0,0,0-.653-.443c-1.375.022-2.75.019-4.125,0a.582.582,0,0,0-.653.447,16.515,16.515,0,0,1-.822,1.854c-.329.635-.771.818-1.246.6-.557-.259-.734-.732-.439-1.415,1.175-2.725,2.372-5.441,3.562-8.161a14.914,14.914,0,0,1,.82-1.79,1.229,1.229,0,0,1,.854-.572,1.152,1.152,0,0,1,.847.582c1.476,3.289,2.908,6.6,4.346,9.9.086.2.132.415.246.783m-5.436-7.982-1.581,3.69h3.175l-1.594-3.69" transform="translate(-36.565 -54.521)" fill="#adafe5"/>
      <path id="Trazado_61097" data-name="Trazado 61097" d="M38.568,125.1c-.678,0-1.357.022-2.034-.008a.637.637,0,0,0-.712.475c-.249.63-.517,1.254-.822,1.858-.317.625-.761.8-1.255.554a.968.968,0,0,1-.435-1.374q2.139-4.906,4.3-9.8a2.4,2.4,0,0,1,.234-.417.835.835,0,0,1,1.426.027,6.9,6.9,0,0,1,.44.848q2.03,4.627,4.044,9.262a1.64,1.64,0,0,1,.141.688.782.782,0,0,1-.732.812,1.073,1.073,0,0,1-.842-.356,15.417,15.417,0,0,1-1.054-2.139.594.594,0,0,0-.664-.432c-.678.021-1.357.006-2.035.006m-1.542-2.061h3.11c-.531-1.246-1.026-2.4-1.58-3.7-.537,1.3-1.017,2.462-1.53,3.7" transform="translate(-15.586 -54.471)" fill="#adafe5"/>
      <path id="Trazado_61098" data-name="Trazado 61098" d="M17.015,122.088c0-1.539-.015-3.078.012-4.616a1.564,1.564,0,0,1,.275-.943,1.227,1.227,0,0,1,.9-.413c.254.029.54.373.68.646a2.138,2.138,0,0,1,.14.933c.011,2.6.019,5.2,0,7.794,0,.5.155.665.65.652,1.077-.029,2.155-.022,3.232,0a4.424,4.424,0,0,1,1.12.156.859.859,0,0,1,.738.946.967.967,0,0,1-1,.922c-.578.017-1.157,0-1.735,0-1.177,0-2.354.014-3.531.014-1.08,0-1.474-.381-1.483-1.47-.013-1.539,0-3.077,0-4.616" transform="translate(-7.989 -54.527)" fill="#adafe5"/>
      <path id="Trazado_61099" data-name="Trazado 61099" d="M57.059,122.055c0,1.537,0,3.073,0,4.609a3.133,3.133,0,0,1-.082.706.885.885,0,0,1-1.751-.126c-.045-.476-.055-.956-.056-1.434q-.008-4.31,0-8.62c0-.715.382-1.166.981-1.17.51,0,.9.442.9,1.126.016,1.636.005,3.272.005,4.908Z" transform="translate(-25.904 -54.484)" fill="#adafe5"/>
    </g>
  </g>
</svg>
