<svg id="Grupo_49590" data-name="Grupo 49590" xmlns="http://www.w3.org/2000/svg" width="137.7" height="77.519" viewBox="0 0 137.7 77.519">
  <g id="Grupo_19786" data-name="Grupo 19786">
    <g id="Grupo_19785" data-name="Grupo 19785">
      <path id="Trazado_84817" data-name="Trazado 84817" d="M118.155,81.8s2.007,4.989,5.928,6.373a28.722,28.722,0,0,0,7.329,1.549V111.84s.106,5.116,4.9,5.226,10.488,0,10.488,0,4.472-.22,5.378-4.236a9.181,9.181,0,0,0,8.146,4.566c5.856,0,7.816-2.962,7.816-2.962s1.448,3.017,5.973,2.962c0,0,2.924-.22,4.1-1.211,0,0,.588,1.212,3.143,1.211s4.313-1.743,4.526-2.963a12.43,12.43,0,0,0,7.933,2.963c4.792,0,5.963-2.61,5.963-2.61a5.112,5.112,0,0,0,4.046,2.279c2.769.11,4.951-1.082,5.271-2.632,0,0,.905,2.577,5.7,2.412s4.845-3.851,4.845-3.851v-8.417s7.347-7.262,8.252-9.628a3.175,3.175,0,0,0,2.669-.275,4.564,4.564,0,0,0,1.963-3.6s2.023.743,2.076,1.953,2.343.77,3.035-.275a5.664,5.664,0,0,0,0-5.843,6.383,6.383,0,0,0-1.685-1.284,26.233,26.233,0,0,0,0-3.16c-.126-.385-1.191-.165-1.191-.165s-1.757-2.916-2.715-3.356c0,0,.266-1.706.8-1.981a13.124,13.124,0,0,1,3.887,0c.692.11,1.65-1.541.745-2.916s-2.5-1.981-5.271-1.981a10.558,10.558,0,0,0,1.491-6.344,8.567,8.567,0,0,0-3.134-5.374s.791-2.2,4.146-1.485,2.5,3.487,3.75,3.916a3.935,3.935,0,0,0,3.012,0c.479-.34.533.98,1.6.65s2.076-1.155,1.7-3.906-.905-5.942-7.561-7.922a16.577,16.577,0,0,0-4.206,0,9.108,9.108,0,0,0,.213-2.531,3.533,3.533,0,0,1-.8.935s-.373-3.411-1.544-4.676c0,0,.479,1.155-.532,1.54a5.278,5.278,0,0,0-4.419-2.916s2.236,1.724,1.6,2.072c0,0-2.875-3.172-9.051-2.952a19.126,19.126,0,0,0-10.489,3.741A28.94,28.94,0,0,0,199.3,54.24a7.992,7.992,0,0,0-.479,8.857,4.836,4.836,0,0,0,3.408,1.163l.106,4.778.958.954a4.621,4.621,0,0,0-2.982-1.184,2.677,2.677,0,0,0-2.316.89,4.576,4.576,0,0,0-2.955-.89,2.2,2.2,0,0,0-1.863.505,20.567,20.567,0,0,0-2.4,2.214l-3.514-2.72a2.962,2.962,0,0,0-2.023,0c-1.118.4-2.662,1.055-2.928,2.211,0,0-1.81-2.166-7.134-2.211,0,0-4.685-.338-5.644,1.844,0,0,1.065-7.17-5.43-7.17,0,0-3.248-.7-5.377,3.062l-3.354,5.868-4.526-7.72s-.639-1.8-3.514-1.669a4.534,4.534,0,0,0-4.1,1.669l-.639.55-.663-3.491s.609-4.431-.242-4.816-6.389,4.676-6.389,4.676l-1.544-3.741a1.467,1.467,0,0,0-1.225-.935c-.958-.11-3.194,4.181-3.194,4.181l-1.769.635s-3.893-5.641-4.709-5.091c0,0-.657.422-.55,2.109s-.053,5.593-.053,5.593l-4.1-.55s-1.118-.33-1.651.11.426,2.035.426,2.035l1.118,2.641-5.75,1.1s-1.917.247-2.13,1.829c0,0,0,1.013,1.544,1.765a44.924,44.924,0,0,1,4.259,2.639l-1.917,1.982a1.9,1.9,0,0,0-.426,1.675C113.843,80.635,118.155,81.8,118.155,81.8Z" transform="translate(-108.655 -41.471)" fill="#6770c6"/>
      <path id="Trazado_84818" data-name="Trazado 84818" d="M114.181,80.536a.32.32,0,0,1-.04-.237,1.968,1.968,0,0,1,.561-1.394,1.877,1.877,0,0,1,1.919-.055.751.751,0,0,1,.211.135,13.5,13.5,0,0,0,1.431,2.187c.133.169.269.332.414.483a5.591,5.591,0,0,0,.434.448,4.832,4.832,0,0,0,.454.409l.163.135a5.94,5.94,0,0,0,1.36.826l.354.151.44.148c.292.1.592.186.887.279.6.17,1.2.332,1.806.465s1.219.252,1.832.348l.459.068.675.082c.643.08,1.322.1,1.993.143l.25.014a1.019,1.019,0,0,1,.012.244V107.4c-.212,2.619.75,4.577,2.592,4.921a4.243,4.243,0,0,0,.738.1c.276.019.645.005.963.01h9.519l.033,0,.181-.022a5.105,5.105,0,0,0,2.777-1.244,1.544,1.544,0,0,0,.241-.255l.111-.134.028-.033.014-.016c.01-.015-.011.024.057-.09.067-.133.082-.193.126-.293l.446-1.089.394-1.331.362-1.229.087-.295.044-.147c.016-.037.024-.14.052-.065l.272.425,1.234,1.932.634.968a2.539,2.539,0,0,0,.311.4l.308.354a6.14,6.14,0,0,0,.726.7,7.694,7.694,0,0,0,1.405.93,8.125,8.125,0,0,0,3.256.836,12.654,12.654,0,0,0,3.533-.324,8.369,8.369,0,0,0,1.621-.562,7.052,7.052,0,0,0,.734-.391c.112-.076.231-.145.339-.225l.16-.119a3.012,3.012,0,0,0,.4-.361l.188-.185c.032-.027.059-.071.1-.084l.126.009.416.031.608.044,1.143.086.241.018c.046-.01.071.029.1.069l.078.112a2.861,2.861,0,0,0,.329.4c.137.133.15.156.2.2l.142.123a4.789,4.789,0,0,0,.621.436,5.7,5.7,0,0,0,2.262.7,4.769,4.769,0,0,0,.627.039,2.12,2.12,0,0,0,.542-.021,13.129,13.129,0,0,0,1.324-.224,6.241,6.241,0,0,0,1.187-.373c.386-.4.961-.062,1.253-.042l1.008.228.35.079.091.021c.023,0,.062-.03.067-.024l.038.022a1.838,1.838,0,0,0,.172.09,2.568,2.568,0,0,0,.455.145,4.911,4.911,0,0,0,1.133.106,3.811,3.811,0,0,0,2.046-.622,3.091,3.091,0,0,0,.406-.32,1.678,1.678,0,0,0,.188-.193l.048-.055a.27.27,0,0,0,.063-.1l.186-.377c.03-.065.063-.121.091-.193l.07-.251.141-.5.295-1.051c.046-.158.1-.367.14-.484l.255.226.612.544c.418.372.83.741,1.24,1.079l.623.446.1.069.036.022.071.044.142.088a11.263,11.263,0,0,0,3.7,1.44c.388.084.781.118,1.173.164.394.01.786.042,1.183.014a7.362,7.362,0,0,0,2.679-.544,5.172,5.172,0,0,0,.559-.285l.25-.168.115-.09.057-.045.029-.022.014-.011.007-.005.057-.053.292-.322c.054-.043.086-.13.157-.137l.19-.012.643-.04.756-.046.535-.031c.19.023.535-.151.68.2.1.106.2.2.295.3l.148.146a.7.7,0,0,0,.068.056,2.728,2.728,0,0,0,.239.176,3.5,3.5,0,0,0,1.056.488,5.737,5.737,0,0,0,2.56-.018,4.859,4.859,0,0,0,.784-.241,3.364,3.364,0,0,0,.622-.324,1.494,1.494,0,0,0,.19-.139l.1-.082.023-.021.053-.076.109-.159.109-.159c.038-.05.119-.022.176-.037l.31-.023.5-.038,1.047-.077c.156-.012.289-.019.535-.048l.328-.036a1.555,1.555,0,0,1,.256.247l.251.267a.63.63,0,0,0,.115.087,1.793,1.793,0,0,0,.2.129,4.463,4.463,0,0,0,.959.406,7.926,7.926,0,0,0,2.35.252,5.351,5.351,0,0,0,2.126-.439,2.892,2.892,0,0,0,.67-.445,2.671,2.671,0,0,0,.452-.6,2.513,2.513,0,0,0,.239-.719l.013-.1V101.3c-.132-.495.316-.727.593-1.038l1.059-1.07.878-.906c1.165-1.212,2.313-2.444,3.4-3.7.3-.348.6-.7.885-1.051s.59-.731.843-1.092l.2-.285c.084-.113.1-.148.2-.309.065-.11.139-.2.2-.326l.089-.18c.034-.055.108-.063.16-.1l.535-.257,1.052-.5a1.882,1.882,0,0,1,.172-.078,1.592,1.592,0,0,0,.185.041l.319.044c.076,0,.147,0,.218,0a1.126,1.126,0,0,0,.626-.2,3.311,3.311,0,0,0,.733-.737c.048-.075.1-.136.144-.222l.036-.061a.49.49,0,0,0,.049-.1l.157-.366a2.2,2.2,0,0,0,.1-.438l.042-.229c.012-.08.009-.191.015-.285l.044-1.245.024-.671c.008-.041-.01-.147.021-.136l.094.035.15.056.461.173.9.339a6.806,6.806,0,0,1,2.2,1.232,3.679,3.679,0,0,1,.864,1.067,3.407,3.407,0,0,1,.251.687.632.632,0,0,1,.021.083l-.027-.012-.055-.023-.014-.006-.007,0c.161-.122-1.409,1.059-.744.558h0l0,0,.023-.018a.143.143,0,0,0,.03-.037.666.666,0,0,0,.124-.223,1.39,1.39,0,0,0,.121-.389,1.583,1.583,0,0,0,.041-.209s-.009.005,0,0a.257.257,0,0,1,.051,0,1.3,1.3,0,0,0,.4-.091,1.328,1.328,0,0,0,.359-.2.115.115,0,0,1,.034-.033c.007,0,0,0,0,0l0,0,.035.029.074.054.019.013.01.006c.035.026-.261-.194-.136-.1l.007-.013.015-.025.031-.05c.021-.033.042-.084.065-.125a4.5,4.5,0,0,0,.386-1.316,4.2,4.2,0,0,0-.026-1.351,3.589,3.589,0,0,0-.177-.6l-.131-.272-.081-.127c-.013-.022-.011-.022-.011-.022l-.185-.174-.3-.266-.331-.269-.51-.7-.4-.559-.247-.344c-.018-.034-.058-.061-.058-.1l0-.119.009-.24.034-1.215c0-.3.007-.612,0-.883l-.007-.183,0-.061v-.014a3.162,3.162,0,0,1,.5-.074,2.505,2.505,0,0,0,.547-.116l.133-.048.094-.038-.007,0a.277.277,0,0,0-.068.081,1.812,1.812,0,0,0-.217.659c-.014.134-.057.335-.063.5,0,.062,0,.046,0,.048h0c.013,0-.047,0-.08,0l-.231.027a.789.789,0,0,1-.21-.08l-.684-.308c-.2-.1-.466-.192-.718-.346l-.462-.724c-.326-.494-.669-.973-1.01-1.394l-.251-.293-.131-.139a1.5,1.5,0,0,1-.177-.187l-.1-.2-.706-1.365c-.11-.123-.033-.29-.012-.439s.064-.306.1-.459.084-.3.126-.457c.021-.074.049-.156.075-.231l.057-.155a4.176,4.176,0,0,1,.345-.711l.155-.222a2.546,2.546,0,0,1,.226-.253,1.955,1.955,0,0,1,.347-.273,1.7,1.7,0,0,1,.363-.177,3.243,3.243,0,0,1,.808-.171c.2-.019.377-.03.55-.036.345-.011.673-.009,1,0s.644.023.964.043l.6.046,0,0h0c-.007.015,0,0,0-.026a.876.876,0,0,0-.009-.117.735.735,0,0,0-.113-.249,2.176,2.176,0,0,0-.825-.723,3.516,3.516,0,0,0-.67-.262c-.124-.035-.251-.069-.386-.1-.066-.014-.131-.03-.2-.04l-.178-.03c-.077-.014-.163-.023-.247-.033-.339-.035-.686-.051-1.032-.075l-1.083-.016-2.125-.03,1.277-2.092c.224-.354.377-.671.569-1.008.138-.33.285-.644.414-.988a9.223,9.223,0,0,0,.44-1.728,6.241,6.241,0,0,0-.339-3.295,6.693,6.693,0,0,0-.825-1.474c-.091-.116-.163-.226-.271-.348l-.151-.181L227.1,59.1c-.228-.254-.526-.483-.788-.725l-.4-.361-.194-.176c-.031-.03-.067-.059-.095-.088l.037-.1.238-.614a5.766,5.766,0,0,1,.305-.7,4.113,4.113,0,0,1,1.039-1.232,4.738,4.738,0,0,1,1.609-.824l.369-.092.313-.046a3.947,3.947,0,0,1,.616-.049,6.38,6.38,0,0,1,1.167.072l.554.094.571.153A5,5,0,0,1,234.7,55.8a6.208,6.208,0,0,1,1.208,2.224l.1.272,0,0,.112.03a4.127,4.127,0,0,0,.458.083,3.045,3.045,0,0,0,.839,0l.083-.019.282-.14a1.765,1.765,0,0,1,.585-.149,1.486,1.486,0,0,1,.534.051,1.61,1.61,0,0,1,.506.233,2.181,2.181,0,0,1,.459.417c.069.084.169.2.124.165h-.013c.307-.515-.418.7-.345.578l0,.006a.336.336,0,0,0-.03.054,3.852,3.852,0,0,0-.072-.647l-.026-.083c-.014-.024.008-.011.011-.019l.044-.015a.723.723,0,0,0,.082-.03,1.053,1.053,0,0,0,.134-.062.624.624,0,0,0,.162-.118.806.806,0,0,0,.191-.4,3.334,3.334,0,0,0,.064-.863,10.582,10.582,0,0,0-.124-1.139c-.063-.4-.128-.795-.22-1.145a5.334,5.334,0,0,0-.815-1.847,8,8,0,0,0-3.462-2.472l-.654-.257c-.232-.1-.486-.164-.727-.248l-.427-.14-.347-.034c-.35-.032-.7-.056-1.051-.07L231.852,50h-.282c-.193,0-.378.016-.567.023-.75.048-1.593.236-2.415.375-.35.153-.2-.2-.225-.356l.013-.552c.018-.4,0-.841.049-1.329.047-.377.123-.767.149-1.13l.012-.236.006-.118v-.056l0-.209-.01-.2v-.039h0c5.629,1.271,1.559.355,2.815.64l-.016.029-.067.113-.116.179a5.345,5.345,0,0,1-.486.61c-.088.094-.178.186-.273.274l-.145.13-.074.064c-1.085-.476,2.427,1.067-2.433-1.067h0v-.017l0-.028-.07-.488c-.054-.332-.116-.665-.191-.988-.051-.223-.105-.445-.167-.656-.065-.231-.137-.456-.216-.661a4.894,4.894,0,0,0-.282-.628,2.351,2.351,0,0,0-.137-.206.666.666,0,0,1-.055-.073h0c4.925-3.485,1.367-.962,2.467-1.738l.012.03.016.042.024.066.036.113c.021.073.042.145.058.218a3.24,3.24,0,0,1,.081.974,2.674,2.674,0,0,1-.367,1.184,2.535,2.535,0,0,1-.881.856l-.224.111-.114.051-.029.012-.014.006c-.835-.354,1.863.8-1.872-.794h0l0,.008-.066-.119c-.053-.092-.115-.187-.181-.281l-.1-.143,0,0-.008,0c-.008,0-.008,0,0,0l0,0h0l-.085.083-.185.179-.093.089-.046.045c1.592.285-2.183-.374-1.793-.308h0l-.074-.071c-.073-.069-.155-.139-.242-.211a7.9,7.9,0,0,0-1.17-.785,11.864,11.864,0,0,0-5.686-1.4,16.865,16.865,0,0,0-7.394,1.659,17.348,17.348,0,0,0-1.706.907c-.276.164-.546.338-.8.517-.13.088-.257.181-.37.266l-.175.136c-.071.051-.151.085-.227.13l-.207.117a30.823,30.823,0,0,0-3.306,2.233,23.809,23.809,0,0,0-4.209,4.112c-.139.19-.312.386-.425.571l-.358.554a7.414,7.414,0,0,0-.531,1.169,6.065,6.065,0,0,0-.312,2.488,6.8,6.8,0,0,0,.706,2.452c.032.059.027.052.027.052h0l.006,0a3.552,3.552,0,0,0,.456.278,3.789,3.789,0,0,0,.5.209l.26.073.133.028a1.766,1.766,0,0,0,.408.041c.52.028,1.1,0,1.632,0l.2,0c.058.008.165-.033.137.06l.009.4.018.8.055,2.487.036,1.615.007.322,0,0,.254.253.139.139.07.069.035.035c-4.117,4.635-1.137,1.289-2.054,2.325l0,0-.006-.005a3.09,3.09,0,0,0-.407-.3,3.27,3.27,0,0,0-.973-.406,2.486,2.486,0,0,0-.487-.06,3.177,3.177,0,0,0-.52.027,2.188,2.188,0,0,0-.433.107c-.067.017-.1.06-.174.06l-.023-.014c-.008-.006,0,.04,0,.047s-.041-.011-.04.027c-.018,0-.026.021-.039.031s-.05-.036-.074-.051c-.091-.055-.129,0-.2-.006l-.338.049-1.06.153c-.2.009-.519.145-.707-.043l-.146-.079-.06-.025a1.3,1.3,0,0,0-.122-.048,3.911,3.911,0,0,0-1.1-.227c-.1-.01-.2-.007-.3-.012h-.037c.085.013-.839-.131-.417-.061.559-2.094.129-.485.243-.909l-.066.292c-.025.1-.048.253-.06.315s-.022.138-.03.207l-.015.114h-.015a.753.753,0,0,0-.247.049,1.518,1.518,0,0,0-.351.184,6.194,6.194,0,0,0-.494.382c-.175.147-.354.306-.531.47l-.266.251-.449.444c-.369.37-.729.768-1.094,1.159l-.272.293-.034.036c-.012,0-.025-.016-.038-.024l-.077-.06-.154-.119-.616-.477-3.073-2.379-.4-.31h0a1.584,1.584,0,0,0-.187-.026,1.673,1.673,0,0,0-.406.019,2.453,2.453,0,0,0-.48.145,7.183,7.183,0,0,0-1.161.53,2.431,2.431,0,0,0-.4.284l-.051.044c-.022.025-.046.047-.067.073a.192.192,0,0,1-.16.1l-.358.093-.546.143-.825.214-.759.195a5.574,5.574,0,0,0-.718-.5,7.169,7.169,0,0,0-1.4-.6h0a10.7,10.7,0,0,0-1.413-.348h0c-.483-.083-.976-.141-1.476-.176-.248-.023-.5-.02-.754-.032l-.8-.027a9.015,9.015,0,0,0-2.769.351h0l-.071.022a.524.524,0,0,0-.083.031c-.048.026-.094.027-.143.074l-.3.293-.594.586a.78.78,0,0,0-.106.161l-.123.206-.245.413-.491.826-1.258,2.119-.81,1.364-.405.682-.051.085c-.018.03,0-.041,0-.056l.021-.172.042-.344.154-1.272.117-.98h0l.484-3.983a6.854,6.854,0,0,0,.056-.883l.023-.831a7.279,7.279,0,0,0-.084-.73l-.032-.2a.825.825,0,0,0-.03-.142,4.028,4.028,0,0,0-.888-1.865c-.789-.992-2.38-1.084-3.983-1.086h0a3.689,3.689,0,0,0-2.248,1.221,6.2,6.2,0,0,0-.453.553c-.137.224-.258.4-.412.664l-.928,1.624-2.636,4.612-.925,1.618-.058.1c-.01.03-.02.013-.029-.008l-.029-.05-.118-.2-.235-.4-.471-.8-1.81-3.087-1.89-3.224-.945-1.612-.236-.4-.059-.1-.007-.013,0-.006c.114.246-.16-.344-.129-.274l.013.035c-.582.272.808-.352.635-.277l-.064.028c-.157.066-.366.178-.467.232l-.092.047v0a.02.02,0,0,0,0-.007l-.014-.024a1.153,1.153,0,0,0-.26-.269,2.138,2.138,0,0,0-.99-.373,4.026,4.026,0,0,0-.665-.036h-.112l-.064,0L144,61.551l-.157-.012a2.755,2.755,0,0,0-.307,0,2.962,2.962,0,0,0-2.157,1l-.2.227a1.176,1.176,0,0,1-.161.152l-.1.085-.337.29-.085.073-.042.036-.021.018-.01.009c2.171.82-2.965-1.11-2.436-.915V62.5l-.043-.224-.085-.449-.341-1.8-.2-1.043-.042-.224c0-.075.018-.151.027-.226l.046-.362.047-.428c.029-.286.053-.572.072-.855l.023-.422.011-.3c0-.015,0-.022-.011-.015l-.65.487c-.447.344-.893.708-1.337,1.077l-.664.561L133.682,59.3,132.35,60.5l-.667.608c-.026.019-.058.065-.08.062l-.043-.1-.086-.209-.173-.419-2.045-4.955c-.008-.02-.005-.008-.007-.014h0s0,0,0,0h-.009c.057-.551-.128,1.233.127-1.236l0,.019a.694.694,0,0,0,.015.17,2.3,2.3,0,0,0,.232.585,2.766,2.766,0,0,0,.211.355l-.014.012a1.6,1.6,0,0,0-.159.155,6.2,6.2,0,0,0-.446.552c-.308.422-.612.9-.9,1.386l-.43.743-.342.628c-.156.248-.22.612-.553.635l-2.156.774-.584.21-.292.105c-.023,0-.051.026-.07.018l-.046-.066-.092-.132L123,59.327l-.574-.8-.371-.5-.755-.977-.571-.7-.008-.008c-.008.009-.008-.012-.007.042l.009.831-.006.979h0l-.054,2.294-.068,1.809-.018.451-.009.226,0,.113-.106-.013-.851-.107-4.6-.611a3.41,3.41,0,0,1-.378-.066l-.15-.033a1.926,1.926,0,0,0-.258-.03l-.09,0c-.016,0-.015,0-.024,0s-.009,0-.007,0h0l-.012-.062-.065-.264c-.026-.083-.056-.158-.074-.21s-.061-.12-.074-.149a.447.447,0,0,0-.036-.054l-.011-.013-.217-.291h0l0,0a1.109,1.109,0,0,0,.6.106,1.21,1.21,0,0,0,.142-.015l.183-.012c.057-.006.13-.016.173-.025l0,0c.009.021,0,.027.017.063a3.168,3.168,0,0,0,.218.527c.051.115.082.129.241.467l.184.435.562,1.326h0l.718,1.7.359.848c.153.193-.122.149-.237.193l-.434.083-3.268.625-3.525.674-.281.055a2.285,2.285,0,0,0-.221.066,1.428,1.428,0,0,0-.331.165s-.006,0-.006.008l0,.006,0,0,.006,0a.663.663,0,0,0,.073.06,2.7,2.7,0,0,0,.426.257l.52.27.272.15.057.032.06.034c.372.213.731.429,1.084.65l.527.332.764.5.639.444h0l.4.287.015.011.513.381h0l.319.24.489.376.145.111c.016.042-.083.1-.122.149l-.344.339-.343.336-.6.577-.167.157-.768.714-.375.345-.238.2-.246.207-.062.053-.02.009-.038.022a.639.639,0,0,0-.164.2.744.744,0,0,0-.091.3l0,.093h0l-.56.127h.011l.021,0,.041-.008a.519.519,0,0,0,.078-.025.462.462,0,0,0,.131-.083l.053-.055.125-.081c.041-.027.014,0,.023,0s-.017.02.018.05a3.646,3.646,0,0,0,.835.7c1.123.692,1.955,1.1,2.39,1.415s.541.5.364.609a6.347,6.347,0,0,1-3.543-.464c.046.029-.094,0-.385-.133a4.29,4.29,0,0,1-.549-.279,2.044,2.044,0,0,1-1.077-1.321c-.021-.1-.045-.2-.061-.312a3.247,3.247,0,0,1-.026-.693,3.17,3.17,0,0,1,.455-1.434A2.765,2.765,0,0,1,110.03,74l.181-.21.3-.358.075-.089.007-.019.013-.035a.5.5,0,0,0,.016-.059l0-.013a.165.165,0,0,0,0-.041l0-.019c.007-.02-.043-.028-.078-.031l-.027,0h-.037l-.023,0a.072.072,0,0,0-.034.018c.028.03-.1-.043-.09-.04-.37-.238-.742-.473-1.112-.7l-.552-.324-.272-.152-.4-.21a5.947,5.947,0,0,1-1.073-.667,4.159,4.159,0,0,1-.628-.627,3.716,3.716,0,0,1-.5-.793,3.09,3.09,0,0,1-.256-.888,2.42,2.42,0,0,1,.095-.912,3.324,3.324,0,0,1,.918-1.6c.114-.107.233-.211.355-.309s.248-.173.346-.234a4.629,4.629,0,0,1,.624-.313,5.067,5.067,0,0,1,.626-.209c.207-.058.477-.1.589-.121l3.654-.7-.13-.308-.163-.384c.038.069-.093-.164-.169-.318a6.3,6.3,0,0,1-.45-1.122,3.3,3.3,0,0,1-.135-.867,2.453,2.453,0,0,1,.011-.308,3.319,3.319,0,0,1,.069-.38,2.069,2.069,0,0,1,.5-.884,1.765,1.765,0,0,1,.35-.293,1.94,1.94,0,0,1,.293-.166,2.413,2.413,0,0,1,.535-.185,3.352,3.352,0,0,1,.859-.077,4.722,4.722,0,0,1,.677.074c.1.018.231.046.311.067l.084.011,2.276.305.027-1.354h0l.006-.931,0-.459,0-.227-.014-.4a9.436,9.436,0,0,1,.028-1.587,4.342,4.342,0,0,1,.389-1.3,2.683,2.683,0,0,1,.726-.919,1.633,1.633,0,0,1,.244-.154c.048-.009.077-.073.145-.032l.141-.057a1.071,1.071,0,0,1,.519-.108,2.159,2.159,0,0,1,1.061.314,6.131,6.131,0,0,1,1.134.928c.184.194.483.414.661.62.236.243,1.264,1.138,1.318,1.205l1.363,1.293c.277.347-.132-.012.132.339l.392.528.176.24-1.116-.632.183-.066.092-.164.475-.821c.327-.545.668-1.085,1.067-1.633a9.333,9.333,0,0,1,.684-.841,4.622,4.622,0,0,1,.487-.459,2.393,2.393,0,0,1,1-.5,1.855,1.855,0,0,1,.513-.037,1.082,1.082,0,0,1,.146.016l.1.017a2.933,2.933,0,0,1,.427.105,2.993,2.993,0,0,1,.781.392,3.086,3.086,0,0,1,1.076,1.387l.724,1.754.874-.741c.466-.388.938-.773,1.427-1.15l.775-.579a10.738,10.738,0,0,1,1.465-.91,2.278,2.278,0,0,1,1.365-.281,2.08,2.08,0,0,1,.618.189,1.885,1.885,0,0,1,.528.417,2.849,2.849,0,0,1,.6,1.321A8.839,8.839,0,0,1,140.527,56c0,.357-.009.43-.017.62l-.028.493c-.022.326-.049.648-.081.97l-.063.573.143.752.341,1.8.085.449.043.224v.007c.532.2-4.632-1.748-2.443-.924l.01-.009.021-.018.042-.036.084-.072.337-.29.069-.059h0l-.023.023.018-.02.1-.112a5.914,5.914,0,0,1,1.961-1.467,6.116,6.116,0,0,1,2.291-.543,5.542,5.542,0,0,1,.594,0c.09,0,.234.017.291.025h.048a6.86,6.86,0,0,1,1.132.067,5.033,5.033,0,0,1,2.348.949,4.225,4.225,0,0,1,1,1.075,3.91,3.91,0,0,1,.209.375l.056.125.041.1c.033.075-.24-.515-.123-.263l0,.007.007.012.059.1.236.4.945,1.612,1.89,3.224.075.128h0l.027-.048.116-.2.927-1.623.927-1.623c.158-.274.38-.619.575-.921a9.289,9.289,0,0,1,.72-.883,6.68,6.68,0,0,1,4.043-2.157h0a6.276,6.276,0,0,1,.923-.052c.158.006.316.013.486.033l.135.018.07.011.052.009.028.005.014,0h.007l-.3-.032.21.013a8.132,8.132,0,0,1,1.69.209,7.019,7.019,0,0,1,1.708.619c.27.171.537.353.8.538a6.605,6.605,0,0,1,2.366,4.025l.074.4-.01,0h0a11.727,11.727,0,0,1,3.713-.5l.463.012.375.015c.294.013.587.012.883.038a17.828,17.828,0,0,1,1.781.213h0a13.59,13.59,0,0,1,1.8.445h0a10.091,10.091,0,0,1,1.959.852l.05.03.022-.021a5.413,5.413,0,0,1,.867-.629,9.992,9.992,0,0,1,1.648-.763,5.4,5.4,0,0,1,1-.284,4.464,4.464,0,0,1,1.7.033,3.714,3.714,0,0,1,.729.234,2.987,2.987,0,0,1,.318.22l.219.169.309.239,1.868,1.445h0l.111-.107.306-.288c.206-.192.418-.381.644-.569a9,9,0,0,1,.744-.572,4.475,4.475,0,0,1,1.026-.524,3.606,3.606,0,0,1,1.262-.213,3.094,3.094,0,0,1,.368.029c.068.01.135.022.217.041l.071.018.044.012c.432.073-.49-.069-.4-.057h.059c.157.006.313,0,.471.019a6.8,6.8,0,0,1,1.907.4l.393.162.01-.006a4.037,4.037,0,0,1,.537-.249,5.056,5.056,0,0,1,1.058-.269,6.009,6.009,0,0,1,1.012-.054,5.369,5.369,0,0,1,1.035.129,6.2,6.2,0,0,1,1.872.774,5.942,5.942,0,0,1,.849.63l.031.028.023.021c-.918,1.046,2.091-2.307-2.052,2.351l-.035-.035-.07-.069-.139-.139-.3-.3-.557-.555-.279-.277c-.067-.1-.024-.261-.041-.389l-.029-1.3-.036-1.614-.017-.737.018,0-.243-.052c-.162-.04-.323-.086-.482-.136a6.743,6.743,0,0,1-.924-.383,6.5,6.5,0,0,1-.87-.533,4.448,4.448,0,0,1-.587-.5l-.208-.338c-.069-.113-.132-.241-.163-.3a10.068,10.068,0,0,1-1.065-3.691,9.422,9.422,0,0,1,.481-3.864,10.624,10.624,0,0,1,.791-1.741l.5-.783c.169-.264.346-.465.52-.7a26.843,26.843,0,0,1,4.758-4.662,33.691,33.691,0,0,1,3.65-2.463l.248-.141h0l.033-.025c.167-.126.323-.24.483-.349.318-.22.636-.426.96-.619a20.241,20.241,0,0,1,1.983-1.055,19.755,19.755,0,0,1,8.658-1.934,14.743,14.743,0,0,1,7.072,1.77,10.912,10.912,0,0,1,1.614,1.089c.13.107.261.22.395.345.075.071.124.117.229.227l.01.01,0,.005c.4.079-3.411-.608-1.836-.351l-.3-.266-.6-.531-1.206-1.062-.3-.266-.151-.133c-.037-.035-.136-.115-.1-.093l.134.01.267.02.637.048h0l-.047,0-.671-.05,2.287.178a6.07,6.07,0,0,1,2.678,1.082,7.088,7.088,0,0,1,1.306,1.2,4.24,4.24,0,0,1,.291.35l.176.241c.112.162.22.328.325.508.052.09.1.183.16.294l.03.061,0,.008,0,0c-3.709-1.468-1.028-.405-1.855-.732l0,.012.007.024.032.1a1.329,1.329,0,0,0,.09.184.7.7,0,0,0,.188.264.724.724,0,0,0-.325-.083,2.044,2.044,0,0,0-.315.007c-.075.009-.054.009-.058.005a.053.053,0,0,0,0-.009l0-.011c-.037.014.107-.037.176-.066q.18-.066.357-.141l.088-.038.022-.01c.151-.065-1.215.515-.637.272l0,.008.007.016c1.105-.781-2.471,1.753,2.478-1.749l0,0,0,0,.237.29a5.468,5.468,0,0,1,.381.574,8.012,8.012,0,0,1,.5,1.087c.119.312.216.616.3.919.081.28.15.557.212.833.092.4.166.8.231,1.2l.088.613.005.042,0,.025v.022h0l-2.443-1.073.028-.024.056-.05.11-.11a2.208,2.208,0,0,0,.193-.242l.033-.051,0-.007h0c.011.007-.027-.019.038.023l.5.314.065.04c-.273-.168.656.4-.6-.372l0,0-.006.01c1.262.286-2.827-.636,2.829.642h0v.009l0,.023,0,.045c.009.121.017.243.019.359s0,.234,0,.348l0,.147v0h.276l.6.017c.4.017.794.044,1.189.079a7.341,7.341,0,0,1,.767.1l.646.21c.278.1.557.171.835.286l.771.3a13.642,13.642,0,0,1,2.52,1.36,8.938,8.938,0,0,1,2.239,2.159,8.609,8.609,0,0,1,1.32,2.947c.131.507.209.994.283,1.465a13.732,13.732,0,0,1,.158,1.508,6.559,6.559,0,0,1-.159,1.782,4.022,4.022,0,0,1-1.027,1.9,3.659,3.659,0,0,1-.869.649,4.026,4.026,0,0,1-.445.208,3.808,3.808,0,0,1-.468.157,3.277,3.277,0,0,1-.343.07,3.394,3.394,0,0,1-.406.018,2.253,2.253,0,0,1-.9-.236,2.022,2.022,0,0,1-.349-.219l-.1-.078-.244.05a5.833,5.833,0,0,1-1.686.022,7.041,7.041,0,0,1-.789-.144l-.2-.054c-.094-.023-.2-.059-.3-.094l-.294-.114a1.814,1.814,0,0,0-.272-.159,2.376,2.376,0,0,1-.874-.911,3.737,3.737,0,0,1-.279-.569c-.062-.148-.1-.255-.14-.368a3.163,3.163,0,0,0-.57-1.162,2.039,2.039,0,0,0-.919-.522l-.326-.089-.361-.06a3.533,3.533,0,0,0-.68-.044,1.456,1.456,0,0,0-.307.023l-.146.019a.458.458,0,0,1-.081.021l.006,0,.2.236c.12.137.245.315.366.473a9.906,9.906,0,0,1,1.212,2.174,9.613,9.613,0,0,1,.542,5.026,12.567,12.567,0,0,1-.6,2.363l0-.008.075.012c.1.014.195.036.293.057.2.038.394.09.594.147a6.405,6.405,0,0,1,1.214.481,5.277,5.277,0,0,1,1.936,1.717,4.015,4.015,0,0,1,.624,1.489,4.085,4.085,0,0,1,.066.838c-.006.133-.02.277-.039.452-.027.157-.062.312-.1.466a3.457,3.457,0,0,1-.9,1.584,2.129,2.129,0,0,1-1.556.666c-.147-.005-.307-.019-.439-.036l-.351-.036-.424-.032-.854-.038c-.282-.006-.561-.008-.822,0-.13,0-.251.013-.358.023l-.129.017a.025.025,0,0,1-.012,0l-.1-.364a2.746,2.746,0,0,0-.073-.332,2.1,2.1,0,0,0-.122-.314l-.038-.076-.018-.033,0,.013.023.049a1.694,1.694,0,0,0,.143.188,1.936,1.936,0,0,0,.237.223,2.027,2.027,0,0,0,.323.243,1.094,1.094,0,0,1,.094.065v0l0,.007a.24.24,0,0,0-.014.029c-.012.023-.027.061-.043.1l-.023.062-.018-.02.189.2c.128.141.245.279.359.418.447.552.831,1.1,1.2,1.651l.047.071h0l.144.01a2.341,2.341,0,0,1,.259.039,2,2,0,0,1,.788.338,1.814,1.814,0,0,1,.544.64,2.131,2.131,0,0,1,.1.224,1.149,1.149,0,0,1,.042.135q.029.111.05.224c.024.142.021.16.032.245l.014.178.012.3c.009.368.006.7,0,1.033l-.017.7h0l.178.139.212.175c.138.117.268.234.4.352l.19.179.3.294c.094.121.172.265.244.375l.167.275c.1.192.191.387.281.583a6.865,6.865,0,0,1,.37,1.229,7.537,7.537,0,0,1,.058,2.462,7.747,7.747,0,0,1-.7,2.327,5.034,5.034,0,0,1-.349.606,4.621,4.621,0,0,1-.291.364c-.1.1-.2.2-.3.29a4.238,4.238,0,0,1-1.235.714,4.148,4.148,0,0,1-1.32.277,3.282,3.282,0,0,1-.824-.078,3.2,3.2,0,0,1-.5-.172,2.56,2.56,0,0,1-.549-.368l-.554-.819-.388.611a6.4,6.4,0,0,1-1.431,1.439,4.073,4.073,0,0,1-2.2.76,5.3,5.3,0,0,1-.534,0l-.059,0,0,.009c-.037.056-.151.25-.224.343l-.248.346c-.313.444-.633.835-.955,1.238-.312.381-.626.759-.945,1.123-1.145,1.323-2.319,2.583-3.511,3.823l-1.63,1.669v7.742a4.149,4.149,0,0,1-.051.552,5.576,5.576,0,0,1-1.657,3.185,5.886,5.886,0,0,1-1.415.963,8.173,8.173,0,0,1-3.337.737,10.738,10.738,0,0,1-3.218-.365,7.368,7.368,0,0,1-1.64-.7,4.488,4.488,0,0,1-.4-.256l-.182-.128-.006-.005-.613.469a6.322,6.322,0,0,1-1.15.6,7.747,7.747,0,0,1-1.241.384,9.653,9.653,0,0,1-1.927.224,7.251,7.251,0,0,1-2.03-.239,6.441,6.441,0,0,1-1.939-.9c-.151-.1-.293-.208-.433-.32l-.107-.085-.376.295-.443.3a8.041,8.041,0,0,1-.918.472,10.2,10.2,0,0,1-3.733.787c-.5.032-1.007,0-1.511-.02a15,15,0,0,1-1.5-.208,14.2,14.2,0,0,1-4.671-1.817l-.294-.182-.132.147a4.277,4.277,0,0,1-.349.353,6.083,6.083,0,0,1-.788.622,6.728,6.728,0,0,1-3.621,1.118,7.729,7.729,0,0,1-1.836-.182,5.481,5.481,0,0,1-.972-.317,5.363,5.363,0,0,1-.662-.361l-.023.011a9.62,9.62,0,0,1-1.673.526,16.112,16.112,0,0,1-1.625.276l-.465.047c-.238,0-.325-.005-.485-.008a7.361,7.361,0,0,1-.863-.055,8.613,8.613,0,0,1-3.425-1.085,7.836,7.836,0,0,1-1.035-.727l-.242-.211a2.256,2.256,0,0,1-.165-.157l0,0,.018-.013-.247.184c-.165.121-.336.224-.5.335a9.963,9.963,0,0,1-1.041.557,11.245,11.245,0,0,1-2.156.751,15.467,15.467,0,0,1-4.378.4,11.037,11.037,0,0,1-4.426-1.151,10.687,10.687,0,0,1-1.961-1.3,5.839,5.839,0,0,1-.445-.391c-.124-.116-.353-.33-.319-.3l-.053-.057-.713.8a7.236,7.236,0,0,1-2.119,1.4,8.955,8.955,0,0,1-2.3.649l-.314.037c-.044,0-.145.014-.216.014h-9.652c-.346-.005-.641.011-1.028-.011a7.1,7.1,0,0,1-1.235-.161,5.785,5.785,0,0,1-2.406-1.111,6.107,6.107,0,0,1-1.708-2.108,8.365,8.365,0,0,1-.793-2.466c-.035-.212-.062-.426-.081-.655l-.012-.183,0-.21V88.135l-.8-.115c-.676-.106-1.347-.235-2.015-.383s-1.331-.324-1.992-.512c-.328-.1-.659-.2-.985-.31l-.491-.165-.554-.23A8.948,8.948,0,0,1,117.91,85.2l-.227-.188a7.384,7.384,0,0,1-.62-.557,8.151,8.151,0,0,1-.575-.592c-.189-.2-.364-.408-.533-.622A16.658,16.658,0,0,1,114.181,80.536Z" transform="translate(-105.527 -38.43)" fill="#6770c6"/>
    </g>
    <path id="Trazado_84819" data-name="Trazado 84819" d="M129.239,155.35l-2.352-4.026,2.546-.235,1.348-.368Z" transform="translate(-119.922 -112.178)" fill="#6770c6"/>
  </g>
  <path id="Trazado_84820" data-name="Trazado 84820" d="M118.154,80.509s2.007,5.083,5.928,6.492a28.258,28.258,0,0,0,7.329,1.578v22.528s.107,5.212,4.9,5.324,10.489,0,10.489,0,4.472-.224,5.377-4.315a9.175,9.175,0,0,0,8.146,4.652c5.857,0,7.817-3.017,7.817-3.017s1.448,3.073,5.973,3.017c0,0,2.924-.224,4.1-1.233,0,0,.588,1.234,3.143,1.234s4.313-1.775,4.526-3.018a12.317,12.317,0,0,0,7.933,3.018c4.792,0,5.963-2.658,5.963-2.658a5.1,5.1,0,0,0,4.046,2.321c2.769.112,4.951-1.1,5.271-2.681,0,0,.905,2.625,5.7,2.457s4.845-3.923,4.845-3.923v-8.574s7.347-7.4,8.252-9.807a3.123,3.123,0,0,0,2.669-.28,4.672,4.672,0,0,0,1.963-3.67s2.023.756,2.077,1.989,2.343.785,3.035-.28a5.861,5.861,0,0,0,0-5.953,6.394,6.394,0,0,0-1.684-1.308,27.216,27.216,0,0,0,0-3.219c-.126-.392-1.191-.168-1.191-.168S233,78.044,232.037,77.6c0,0,.266-1.737.8-2.017a12.886,12.886,0,0,1,3.887,0c.692.112,1.65-1.569.745-2.97s-2.5-2.017-5.271-2.017a10.907,10.907,0,0,0,1.491-6.462,8.741,8.741,0,0,0-3.134-5.474s.792-2.242,4.146-1.513,2.5,3.552,3.75,3.99a3.869,3.869,0,0,0,3.012,0c.479-.347.532,1,1.6.662s2.076-1.177,1.7-3.979-.9-6.052-7.56-8.07a16.274,16.274,0,0,0-4.206,0,9.46,9.46,0,0,0,.213-2.578,3.587,3.587,0,0,1-.8.953s-.373-3.475-1.544-4.764c0,0,.479,1.177-.533,1.569a5.29,5.29,0,0,0-4.419-2.97s2.236,1.756,1.6,2.111c0,0-2.875-3.232-9.051-3.007a18.936,18.936,0,0,0-10.489,3.811,29.061,29.061,0,0,0-8.678,7.566,8.267,8.267,0,0,0-.479,9.022,4.787,4.787,0,0,0,3.407,1.185l.107,4.868.958.972a4.584,4.584,0,0,0-2.981-1.207,2.659,2.659,0,0,0-2.316.907,4.525,4.525,0,0,0-2.955-.907,2.17,2.17,0,0,0-1.863.515,20.747,20.747,0,0,0-2.4,2.256l-3.514-2.771a2.913,2.913,0,0,0-2.023,0c-1.118.4-2.662,1.075-2.928,2.252,0,0-1.811-2.207-7.134-2.252,0,0-4.685-.344-5.644,1.879,0,0,1.065-7.3-5.43-7.3,0,0-3.248-.71-5.378,3.12l-3.354,5.978-4.525-7.864s-.639-1.831-3.514-1.7a4.486,4.486,0,0,0-4.1,1.7l-.639.56.106-7a2.057,2.057,0,0,0-1.012-1.457c-.852-.392-6.389,4.764-6.389,4.764l-1.544-3.811a1.475,1.475,0,0,0-1.224-.953c-.958-.112-3.194,4.259-3.194,4.259l-4.9-4.2s-.763-.9-1.58-.336c0,0-.656.43-.55,2.148s-.053,5.7-.053,5.7l-4.1-.561s-1.118-.336-1.65.112.426,2.074.426,2.074l1.118,2.69L112.3,68.18s-1.917.252-2.13,1.863c0,0,0,1.032,1.544,1.8a44.855,44.855,0,0,1,4.259,2.689l-1.916,2.019a1.988,1.988,0,0,0-.426,1.719C113.842,79.333,118.154,80.509,118.154,80.509Z" transform="translate(-108.655 -40.148)" fill="#adafe5"/>
  <path id="Trazado_84821" data-name="Trazado 84821" d="M125.959,98.435l-8.424,1.2,7.325,4.72-3.775,2.608,4.293.572,4.864-12.527,8.448-1.27,7.351,1.449-.394-7.8-5.312,4.069-2.78-3.77-1.9,4.707-6.685-5.754.007,7.535-6.041-.66Z" transform="translate(-113.62 -70.092)" fill="#6770c6" stroke="#6770c6" stroke-width="1"/>
  <g id="Grupo_19791" data-name="Grupo 19791" transform="translate(91.802 3.565)">
    <g id="Grupo_19788" data-name="Grupo 19788" transform="translate(1.063)">
      <path id="Trazado_84822" data-name="Trazado 84822" d="M430.56,97.335l1.111.861a3.535,3.535,0,0,1,.373,3.528,3.589,3.589,0,0,1-2.8,2.053,3.919,3.919,0,0,1-3.238-1.227.547.547,0,0,1-.189-.361.791.791,0,0,1,.113-.313c.261-.554.033-1.212.033-1.831a2.874,2.874,0,0,1,1.635-2.47A4.535,4.535,0,0,1,430.56,97.335Z" transform="translate(-414.24 -80.591)" fill="#c4c7fd"/>
      <g id="Grupo_19787" data-name="Grupo 19787">
        <path id="Trazado_84823" data-name="Trazado 84823" d="M409.981,59.533s1.055-9.671-7.747-8.475l-2.272.9s4.969-2.69,6.673-2.241l-.883-.9s2.09.523,2.586,1.719c0,0,.5-1.42-.071-1.719,0,0,1.8,2.391,1.753,3.064,0,0,.8-1.27.59-1.793s1.775,1.2,1.775,2.914v1.494a15.117,15.117,0,0,0,1.562-3.288s.5,2.989,0,4.035c0,0,3.265-1.42,3.265-2.914,0,0-.071,4.409-1.42,5.6,0,0,2.981-1.046,3.407-2.167,0,0-.852,2.977-2.485,3.767,0,0,3.763-2.049,5.4-1.825a6.084,6.084,0,0,0-1.42.747,10.6,10.6,0,0,1,3.62-.074,8.786,8.786,0,0,1,3.053,2.017c1.278,1.121,1.7,4.184,1.7,4.184s-3.478-4.483-6.815-3.886c0,0-5.608,1.27-6.46,2.317,0,0,3.194,3.512,3.194,4.857a5.1,5.1,0,0,0-1.7-.9s2.485,2.615,1.633,5.007a4.983,4.983,0,0,1-2.2,2.989s2.059-4.632-.923-7.472c0,0-1.7-1.494-2.627-1.2,0,0,2.059,1.046,1.349,2.242a1.961,1.961,0,0,1-1.846,1.046s1.278,11.881-.213,18.531-6.034,17.784-6.034,17.784-5.466-1.569-5.253-4.334c0,0,6.1-7.622,6.744-10.386A84.774,84.774,0,0,0,409.9,77.36c.071-4.184-1.491-6.874-2.2-7.547s-5.111-1.494-5.111-1.494.639-1.943,1.988-2.317c0,0-4.33.6-6.176,10.312,0,0-2.84-1.868-3.053-4.184l-.426,1.494s-.71-3.811,1.7-6.052l-1.278.3s3.194-3.811,5.892-3.736c0,0-6.957.374-7.525,1.868,0,0,0-2.466.994-3.437,0,0,1.136-1.27,1.846-1.42l-1.207-.3a16.569,16.569,0,0,1,4.827-.822h2.484s-4.9-2.391-6.957-1.121-4.188,2.764-4.614,5.23a4.268,4.268,0,0,1,0-3.736l-.781-.224a5.52,5.52,0,0,1,3.62-3.661l-.994-.373s4.047-1.868,7.454-1.42l-.852-.822s3.62.822,4.9,2.092l-2.272-2.242S408.5,55.155,409.981,59.533Z" transform="translate(-390.308 -48.816)" fill="#c4c7fd"/>
        <path id="Trazado_84824" data-name="Trazado 84824" d="M444.425,99.491l1.155-.794a3.111,3.111,0,0,1,3.27.869,3.909,3.909,0,0,1,.847,3.476,4.2,4.2,0,0,1-2.227,2.762.489.489,0,0,1-.387.06.743.743,0,0,1-.239-.222c-.4-.451-1.067-.457-1.618-.674a2.874,2.874,0,0,1-1.625-2.477A5.2,5.2,0,0,1,444.425,99.491Z" transform="translate(-426.215 -81.47)" fill="#c4c7fd"/>
        <path id="Trazado_84825" data-name="Trazado 84825" d="M445.025,99.24a2.532,2.532,0,0,1,.292,1.247c.007.41-.088.9-.45,1.052a.538.538,0,0,1-.627-.176c-.215-.288-.126-.717-.269-1.051-.154-.361-.544-.542-.76-.865a.321.321,0,0,1-.068-.2c.028-.3.675-.634.933-.642A1.228,1.228,0,0,1,445.025,99.24Z" transform="translate(-425.913 -81.513)" fill="#c4c7fd"/>
      </g>
    </g>
    <g id="Grupo_19790" data-name="Grupo 19790">
      <path id="Trazado_84826" data-name="Trazado 84826" d="M427.3,97.335l1.111.861a3.535,3.535,0,0,1,.373,3.528,3.59,3.59,0,0,1-2.8,2.053,3.919,3.919,0,0,1-3.238-1.227.546.546,0,0,1-.189-.361.789.789,0,0,1,.113-.313c.261-.554.033-1.212.033-1.831a2.874,2.874,0,0,1,1.635-2.47A4.535,4.535,0,0,1,427.3,97.335Z" transform="translate(-410.979 -80.591)" fill="#c4c7fd"/>
      <g id="Grupo_19789" data-name="Grupo 19789">
        <path id="Trazado_84827" data-name="Trazado 84827" d="M406.72,59.533s1.055-9.671-7.747-8.475l-2.272.9s4.969-2.69,6.673-2.241l-.882-.9s2.089.523,2.586,1.719c0,0,.5-1.42-.071-1.719,0,0,1.8,2.391,1.753,3.064,0,0,.8-1.27.59-1.793s1.775,1.2,1.775,2.914v1.494a15.117,15.117,0,0,0,1.562-3.288s.5,2.989,0,4.035c0,0,3.265-1.42,3.265-2.914,0,0-.071,4.409-1.42,5.6,0,0,2.981-1.046,3.407-2.167,0,0-.852,2.977-2.485,3.767,0,0,3.762-2.049,5.395-1.825a6.092,6.092,0,0,0-1.42.747,10.6,10.6,0,0,1,3.621-.074A8.791,8.791,0,0,1,424.1,60.4c1.278,1.121,1.7,4.184,1.7,4.184s-3.478-4.483-6.815-3.886c0,0-5.608,1.27-6.46,2.317,0,0,3.194,3.512,3.194,4.857a5.1,5.1,0,0,0-1.7-.9s2.484,2.615,1.633,5.007a4.982,4.982,0,0,1-2.2,2.989s2.059-4.632-.923-7.472c0,0-1.7-1.494-2.627-1.2,0,0,2.059,1.046,1.349,2.242a1.961,1.961,0,0,1-1.846,1.046s1.278,11.881-.213,18.531-6.034,17.784-6.034,17.784-5.466-1.569-5.253-4.334c0,0,6.105-7.622,6.744-10.386A84.777,84.777,0,0,0,406.64,77.36c.071-4.184-1.491-6.874-2.2-7.547s-5.111-1.494-5.111-1.494.639-1.943,1.988-2.317c0,0-4.33.6-6.176,10.312,0,0-2.84-1.868-3.053-4.184l-.426,1.494s-.71-3.811,1.7-6.052l-1.278.3s3.195-3.811,5.892-3.736c0,0-6.957.374-7.525,1.868,0,0,0-2.466.994-3.437,0,0,1.136-1.27,1.846-1.42l-1.207-.3a16.569,16.569,0,0,1,4.827-.822H399.4s-4.9-2.391-6.957-1.121-4.188,2.764-4.614,5.23a4.267,4.267,0,0,1,0-3.736l-.781-.224a5.521,5.521,0,0,1,3.621-3.661l-.994-.373s4.046-1.868,7.454-1.42l-.852-.822s3.621.822,4.9,2.092L398.9,53.748S405.239,55.155,406.72,59.533Z" transform="translate(-387.047 -48.816)" fill="#c4c7fd"/>
        <path id="Trazado_84828" data-name="Trazado 84828" d="M441.165,99.491l1.155-.794a3.11,3.11,0,0,1,3.27.869,3.907,3.907,0,0,1,.847,3.476,4.2,4.2,0,0,1-2.227,2.762.489.489,0,0,1-.387.06.74.74,0,0,1-.239-.222c-.4-.451-1.068-.457-1.618-.674a2.874,2.874,0,0,1-1.625-2.477A5.2,5.2,0,0,1,441.165,99.491Z" transform="translate(-422.955 -81.47)" fill="#c4c7fd"/>
        <path id="Trazado_84829" data-name="Trazado 84829" d="M441.765,99.24a2.535,2.535,0,0,1,.292,1.247c.007.41-.088.9-.45,1.052a.539.539,0,0,1-.627-.176c-.215-.288-.126-.717-.269-1.051-.154-.361-.545-.542-.761-.865a.322.322,0,0,1-.067-.2c.028-.3.675-.634.933-.642A1.229,1.229,0,0,1,441.765,99.24Z" transform="translate(-422.653 -81.513)" fill="#c4c7fd"/>
      </g>
    </g>
  </g>
  <g id="Grupo_19796" data-name="Grupo 19796" transform="translate(107.442 36.349)">
    <g id="Grupo_19793" data-name="Grupo 19793" transform="translate(0.486 0.211)">
      <path id="Trazado_84830" data-name="Trazado 84830" d="M457.993,166.813l.353.614a1.732,1.732,0,0,1-.464,1.686,1.7,1.7,0,0,1-1.646.381,2.037,2.037,0,0,1-1.258-1.205.279.279,0,0,1-.022-.2.379.379,0,0,1,.108-.12c.219-.2.233-.547.344-.83a1.348,1.348,0,0,1,1.191-.8A2.274,2.274,0,0,1,457.993,166.813Z" transform="translate(-448.929 -158.991)" fill="#6770c6"/>
      <g id="Grupo_19792" data-name="Grupo 19792">
        <path id="Trazado_84831" data-name="Trazado 84831" d="M448.176,150.682s2.219-4.207-2.016-5.413l-1.2-.043s2.753-.24,3.451.3l-.242-.585s.861.655.873,1.3c0,0,.482-.55.276-.8a5.613,5.613,0,0,1,.25,1.748s.595-.42.592-.7.6.9.287,1.684l-.268.683a7.059,7.059,0,0,0,1.3-1.191,5.144,5.144,0,0,1-.725,1.843s1.747,0,2.015-.681c0,0-.825,2-1.656,2.277,0,0,1.55.116,1.946-.312,0,0-.924,1.19-1.812,1.226a6.955,6.955,0,0,1,2.792.241,2.906,2.906,0,0,0-.783.059,5.341,5.341,0,0,1,1.667.687,4.606,4.606,0,0,1,1.032,1.529,4.3,4.3,0,0,1,.026,2.25s-.784-2.74-2.415-3.131c0,0-2.79-.536-3.367-.228,0,0,.828,2.24.586,2.854a2.664,2.664,0,0,0-.617-.749s.665,1.689-.154,2.612a2.333,2.333,0,0,1-1.542.927s1.773-1.706.921-3.6c0,0-.51-1.022-.985-1.069,0,0,.752.888.213,1.293a.946.946,0,0,1-1.031.11s-1.551,5.681-3.427,8.422a70.724,70.724,0,0,1-5.951,6.922s-2.215-1.8-1.621-3.025c0,0,4.158-2.266,4.947-3.4a40.451,40.451,0,0,0,3.391-5.919,5.617,5.617,0,0,0,.351-3.885,10.86,10.86,0,0,0-2.066-1.7s.641-.76,1.324-.663c0,0-2.085-.589-4.674,3.481a3.69,3.69,0,0,1-.642-2.519l-.463.6a3.424,3.424,0,0,1,1.866-2.425l-.638-.118s2.144-1.1,3.363-.533c0,0-3.245-1.214-3.773-.645,0,0,.443-1.127,1.072-1.372a2.62,2.62,0,0,1,1.1-.281l-.5-.377a8.211,8.211,0,0,1,2.353.586l1.135.495s-1.808-2.067-2.976-1.9a3.947,3.947,0,0,0-3.047,1.47,2.079,2.079,0,0,1,.671-1.706l-.316-.258a2.59,2.59,0,0,1,2.311-.952l-.387-.369a8,8,0,0,1,3.66.835l-.241-.545a7.063,7.063,0,0,1,1.861,1.931l-.635-1.476S448.285,148.388,448.176,150.682Z" transform="translate(-436.497 -144.945)" fill="#6770c6"/>
        <path id="Trazado_84832" data-name="Trazado 84832" d="M464.2,170.277l.67-.133a1.6,1.6,0,0,1,1.338,1.048,1.945,1.945,0,0,1-.238,1.756,1.965,1.965,0,0,1-1.513.818.244.244,0,0,1-.188-.049.39.39,0,0,1-.069-.149c-.1-.286-.406-.421-.618-.63a1.476,1.476,0,0,1-.3-1.455A2.453,2.453,0,0,1,464.2,170.277Z" transform="translate(-454.498 -161.495)" fill="#6770c6"/>
        <path id="Trazado_84833" data-name="Trazado 84833" d="M465.861,169.7a1.259,1.259,0,0,1-.091.628c-.07.188-.2.393-.394.391a.277.277,0,0,1-.255-.205c-.047-.174.072-.352.066-.534s-.151-.356-.192-.546a.161.161,0,0,1,.005-.106c.066-.129.422-.155.542-.107A.643.643,0,0,1,465.861,169.7Z" transform="translate(-455.698 -160.874)" fill="#6770c6"/>
      </g>
    </g>
    <g id="Grupo_19795" data-name="Grupo 19795">
      <path id="Trazado_84834" data-name="Trazado 84834" d="M456.5,166.2l.353.614a1.733,1.733,0,0,1-.464,1.686,1.7,1.7,0,0,1-1.646.381,2.036,2.036,0,0,1-1.258-1.205.28.28,0,0,1-.022-.2.375.375,0,0,1,.108-.12c.219-.2.233-.547.344-.83a1.347,1.347,0,0,1,1.191-.8A2.272,2.272,0,0,1,456.5,166.2Z" transform="translate(-447.44 -158.375)" fill="#6770c6"/>
      <g id="Grupo_19794" data-name="Grupo 19794">
        <path id="Trazado_84835" data-name="Trazado 84835" d="M446.687,150.066s2.219-4.207-2.016-5.413l-1.2-.043s2.753-.24,3.451.3l-.242-.585s.861.655.873,1.3c0,0,.482-.55.276-.8a5.61,5.61,0,0,1,.25,1.748s.595-.42.592-.7.6.9.287,1.685l-.268.682a7.072,7.072,0,0,0,1.3-1.191,5.143,5.143,0,0,1-.725,1.843s1.747,0,2.015-.681c0,0-.824,2-1.655,2.277,0,0,1.55.116,1.946-.311,0,0-.924,1.19-1.812,1.226a6.961,6.961,0,0,1,2.792.241,2.922,2.922,0,0,0-.783.059,5.355,5.355,0,0,1,1.667.686,4.606,4.606,0,0,1,1.032,1.529,4.3,4.3,0,0,1,.026,2.251s-.783-2.74-2.415-3.131c0,0-2.79-.536-3.367-.228,0,0,.828,2.24.587,2.854a2.67,2.67,0,0,0-.617-.749s.665,1.689-.154,2.612a2.334,2.334,0,0,1-1.542.927s1.773-1.706.921-3.6c0,0-.51-1.022-.985-1.069,0,0,.752.888.213,1.292a.947.947,0,0,1-1.031.111s-1.55,5.681-3.427,8.422a70.665,70.665,0,0,1-5.951,6.922s-2.215-1.8-1.621-3.025c0,0,4.158-2.266,4.946-3.4a40.407,40.407,0,0,0,3.391-5.919,5.621,5.621,0,0,0,.351-3.885,10.879,10.879,0,0,0-2.066-1.7s.641-.76,1.324-.662c0,0-2.085-.589-4.674,3.48a3.69,3.69,0,0,1-.642-2.519l-.463.6a3.425,3.425,0,0,1,1.866-2.425l-.637-.118s2.144-1.1,3.363-.534c0,0-3.245-1.214-3.773-.645,0,0,.443-1.126,1.072-1.372a2.627,2.627,0,0,1,1.1-.281l-.5-.377a8.22,8.22,0,0,1,2.353.585l1.135.495s-1.808-2.067-2.976-1.9a3.947,3.947,0,0,0-3.047,1.471,2.079,2.079,0,0,1,.671-1.707l-.316-.258a2.59,2.59,0,0,1,2.311-.952l-.387-.368a8,8,0,0,1,3.66.835l-.242-.545a7.069,7.069,0,0,1,1.862,1.931l-.635-1.476S446.8,147.771,446.687,150.066Z" transform="translate(-435.008 -144.329)" fill="#6770c6"/>
        <path id="Trazado_84836" data-name="Trazado 84836" d="M462.707,169.66l.671-.132a1.6,1.6,0,0,1,1.338,1.048,1.927,1.927,0,0,1-1.751,2.575.242.242,0,0,1-.188-.049.384.384,0,0,1-.069-.149c-.1-.286-.406-.421-.618-.63a1.476,1.476,0,0,1-.3-1.455A2.458,2.458,0,0,1,462.707,169.66Z" transform="translate(-453.009 -160.879)" fill="#6770c6"/>
        <path id="Trazado_84837" data-name="Trazado 84837" d="M464.371,169.084a1.258,1.258,0,0,1-.091.627c-.07.189-.2.393-.394.391a.278.278,0,0,1-.254-.205c-.047-.175.071-.353.066-.534s-.151-.356-.192-.547a.158.158,0,0,1,.006-.105c.066-.13.422-.155.541-.108A.643.643,0,0,1,464.371,169.084Z" transform="translate(-454.208 -160.257)" fill="#6770c6"/>
      </g>
    </g>
  </g>
  <path id="Trazado_84838" data-name="Trazado 84838" d="M215.915,129.144V112.406a2.385,2.385,0,0,1,2.485-2.69,4.016,4.016,0,0,1,3.123,2.69c1.065,2.54,5.324,9.34,5.324,9.34l5.892-10.834a2.346,2.346,0,0,1,2.13-1.2c1.562,0,2.7.822,2.84,3.885s0,15.841,0,15.841a2.614,2.614,0,0,1-2.627,1.943,2.564,2.564,0,0,1-2.556-1.719l-.071-7.472-3.762,7.1s-1.917,1.719-3.691.075l-3.833-6.874v6.874s-.781,2.1-2.556,2.019S215.915,129.144,215.915,129.144Z" transform="translate(-179.913 -85.248)" fill="#c4c7fd" stroke="#6770c6" stroke-width="1"/>
  <path id="Trazado_84839" data-name="Trazado 84839" d="M303,139.632l-.3-7.921a7.728,7.728,0,0,0-8.643-5.978c-7.312.672-6.744,8.144-6.744,8.892a7.6,7.6,0,0,0,7.631,7.252s3.345-.3,3.926-1.125a1.93,1.93,0,0,0,2,1.125A2.076,2.076,0,0,0,303,139.632Z" transform="translate(-228.028 -95.736)" fill="#c4c7fd" stroke="#6770c6" stroke-width="1"/>
  <path id="Trazado_84840" data-name="Trazado 84840" d="M342.061,128.918l-3.833-4.009a1.78,1.78,0,0,0-2.627.422c-1.52,1.867-.852,2.615-.71,2.989s3.9,4.687,3.9,4.687l-3.328,3.433s-1.443,2.432.639,4.039a2.172,2.172,0,0,0,3.407-.452l2.548-3.337,3.337,3.96a2.52,2.52,0,0,0,3.407-.448,2.3,2.3,0,0,0,0-3.138l-3.62-3.935,3.407-4.06a2.14,2.14,0,0,0,0-3.362c-2-1.769-3.124,0-3.124,0Z" transform="translate(-259.914 -94.96)" fill="#c4c7fd" stroke="#6770c6" stroke-width="1"/>
  <path id="Trazado_84841" data-name="Trazado 84841" d="M386.287,128.918l-3.833-4.009a1.78,1.78,0,0,0-2.627.422c-1.52,1.867-.852,2.615-.71,2.989s3.9,4.687,3.9,4.687l-3.329,3.433s-1.442,2.432.639,4.039a2.172,2.172,0,0,0,3.407-.452l2.548-3.337,3.336,3.96a2.521,2.521,0,0,0,3.408-.448,2.3,2.3,0,0,0,0-3.138l-3.621-3.935,3.408-4.06a2.14,2.14,0,0,0,0-3.362c-2-1.769-3.124,0-3.124,0Z" transform="translate(-289.72 -94.96)" fill="#c4c7fd" stroke="#6770c6" stroke-width="1"/>
  <path id="Trazado_84842" data-name="Trazado 84842" d="M184.683,174.869v21.744a2.219,2.219,0,0,0,2.343,2.839h10.151s5.111-1.569,5.4-8.07c0,0,.142-4.708-3.266-6.351,0,0,2.059-.971,2.272-5.6s-4.188-6.56-6.034-6.568-9.37,0-9.37,0S184.683,172.777,184.683,174.869Z" transform="translate(-158.833 -126.714)" fill="#c4c7fd" stroke="#6770c6" stroke-width="1"/>
  <path id="Trazado_84843" data-name="Trazado 84843" d="M247.2,208.258h8.164a4.168,4.168,0,0,0,2.059-3.661c.071-2.69-2.13-7.173-7.88-6.949S241.8,203.7,241.8,203.7s-2.745,10.379,5.49,12.471,9.5-4.086,9.5-4.086.634-3.7-2.208-3.3c-2.28.315-1.153,2.5-3.922,2.354S247.409,210.275,247.2,208.258Z" transform="translate(-197.067 -142.992)" fill="#c4c7fd" stroke="#6770c6" stroke-width="1"/>
  <path id="Trazado_84844" data-name="Trazado 84844" d="M390.685,196.023V172.317a2.816,2.816,0,0,1,2.875-2.466c2.556.056,3.141,1.289,3.088,2.41s0,8.125,0,8.125.431-.672,3.306-.728,6.762,1.233,6.708,5.6,0,10.536,0,10.536a3.218,3.218,0,0,1-3.248,2.185A2.4,2.4,0,0,1,400.8,195.8v-8.855a1.9,1.9,0,0,0-2.129-1.4,1.45,1.45,0,0,0-1.6,1.682l.053,8.406a2.889,2.889,0,0,1-3.034,2.358A3.2,3.2,0,0,1,390.685,196.023Z" transform="translate(-297.696 -124.741)" fill="#c4c7fd" stroke="#6770c6" stroke-width="1"/>
  <path id="Trazado_84845" data-name="Trazado 84845" d="M348.9,206.856s-.373-3.546,1.81-3.6,1.384.672,2.4,1.009a2.764,2.764,0,0,0,3.461-1.012,4.383,4.383,0,0,0-3.846-5.871c-4.034-.571-7.175.718-8.453,2.9s-1.651,3.587-1.6,7.173,1.6,5.716,2.822,6.669a7.9,7.9,0,0,0,5.484,1.858c2.982.048,4.9-1.241,5.43-2.025s1.224-2.634.213-3.811a2.807,2.807,0,0,0-3.62-.728C351.831,210.092,349.329,210.682,348.9,206.856Z" transform="translate(-265.338 -142.733)" fill="#c4c7fd" stroke="#6770c6" stroke-width="1"/>
  <path id="Trazado_84846" data-name="Trazado 84846" d="M300.315,204.962s-.71-2.746-3.016-2.466-1.538.877-2.661,1.223-3.548.368-3.962-1.8,2.2-4.232,5.086-4.792c4.222-.82,7.688.326,9.343,2.287,0,0,1.36,1.233,1.36,4.875v8.575a2.308,2.308,0,0,1-2.188,2.354c-3.189.28-3.667-1.569-3.667-1.569a8.224,8.224,0,0,1-5.381,2.429,5.352,5.352,0,0,1-5.322-5.343c0-2.8.887-5.1,4.553-5.38S300.315,204.962,300.315,204.962Z" transform="translate(-229.782 -142.479)" fill="#c4c7fd" stroke="#6770c6" stroke-width="1"/>
  <path id="Trazado_84847" data-name="Trazado 84847" d="M310.505,229.119s-3.194-.056-3.461.785-.294,1.961.652,2.354S310.346,231.809,310.505,229.119Z" transform="translate(-241.223 -163.666)" fill="#adafe5" stroke="#6770c6" stroke-width="1"/>
  <path id="Trazado_84848" data-name="Trazado 84848" d="M259.253,214.024h4.366s.053-2.5-2.183-2.427A2.3,2.3,0,0,0,259.253,214.024Z" transform="translate(-209.124 -152.158)" fill="#adafe5" stroke="#6770c6" stroke-width="1"/>
  <path id="Trazado_84849" data-name="Trazado 84849" d="M203.742,189.772V193.3h3.46a1.75,1.75,0,0,0,1.491-1.765,1.618,1.618,0,0,0-1.384-1.765Z" transform="translate(-171.716 -137.825)" fill="#adafe5" stroke="#6770c6" stroke-width="1"/>
  <path id="Trazado_84850" data-name="Trazado 84850" d="M203.742,218.671V222.2h3.46a1.75,1.75,0,0,0,1.491-1.765,1.618,1.618,0,0,0-1.384-1.765Z" transform="translate(-171.716 -156.804)" fill="#adafe5" stroke="#6770c6" stroke-width="1"/>
  <ellipse id="Elipse_6255" data-name="Elipse 6255" cx="2.235" cy="2.353" rx="2.235" ry="2.353" transform="translate(64.877 35.694)" fill="#adafe5" stroke="#6770c6" stroke-width="1"/>
  <path id="Trazado_84851" data-name="Trazado 84851" d="M423.422,128.424v12.1a2.505,2.505,0,0,0,2.688,2.152,2.889,2.889,0,0,0,2.961-2.152V128.7s-.08-1.849-2.824-1.793S423.422,128.424,423.422,128.424Z" transform="translate(-319.758 -96.539)" fill="#c4c7fd" stroke="#6770c6" stroke-width="1"/>
  <ellipse id="Elipse_6256" data-name="Elipse 6256" cx="2.538" cy="2.672" rx="2.538" ry="2.672" transform="translate(103.95 25.429)" fill="#c4c7fd" stroke="#6770c6" stroke-width="1"/>
  <ellipse id="Elipse_6257" data-name="Elipse 6257" cx="12.17" cy="12.81" rx="12.17" ry="12.81" transform="translate(11.228 20.882)" fill="#c4c7fd" stroke="#6770c6" stroke-width="1"/>
  <ellipse id="Elipse_6258" data-name="Elipse 6258" cx="3.762" cy="3.213" rx="3.762" ry="3.213" transform="translate(13.995 30.446)" fill="#6770c6"/>
  <ellipse id="Elipse_6259" data-name="Elipse 6259" cx="3.762" cy="3.213" rx="3.762" ry="3.213" transform="translate(23.934 26.332)" fill="#6770c6"/>
  <path id="Trazado_84852" data-name="Trazado 84852" d="M139.087,122.918l4.685-.374,10.165-3.96,7.322-4.467" transform="translate(-128.143 -88.138)" fill="none" stroke="#6770c6" stroke-width="2"/>
  <path id="Trazado_84853" data-name="Trazado 84853" d="M157.591,140.446a11.767,11.767,0,0,0,2.981-.836c1.491-.658,3.266-1.743,5.111-2.807s5.892-2.344,6.1-2.937a6.644,6.644,0,0,1-3.052,8.373C163.412,145.452,157.591,140.446,157.591,140.446Z" transform="translate(-140.613 -101.108)" fill="#e3e5ff" stroke="#6770c6" stroke-width="0.75"/>
  <path id="Trazado_84854" data-name="Trazado 84854" d="M165.428,152.5c.852.208,5.253-.044,7.667-1.9" transform="translate(-145.895 -112.098)" fill="none" stroke="#6670c6" stroke-width="0.75"/>
  <path id="Trazado_84855" data-name="Trazado 84855" d="M190.492,143.458a8.23,8.23,0,0,1-3.041,2.787" transform="translate(-160.736 -107.408)" fill="none" stroke="#6770c6" stroke-width="0.75"/>
  <line id="Línea_847" data-name="Línea 847" x1="1.188" y2="2.33" transform="translate(15.221 32.109)" fill="none" stroke="#fff" stroke-width="0.5"/>
  <line id="Línea_848" data-name="Línea 848" x1="1.759" y2="4.352" transform="translate(16.409 31.343)" fill="none" stroke="#fff" stroke-width="0.5"/>
  <line id="Línea_849" data-name="Línea 849" x1="1.108" y2="2.547" transform="translate(18.753 32.758)" fill="none" stroke="#fff" stroke-width="0.5"/>
  <line id="Línea_850" data-name="Línea 850" x1="0.71" y2="2.698" transform="translate(25.496 27.681)" fill="none" stroke="#fff" stroke-width="0.5"/>
  <path id="Trazado_84856" data-name="Trazado 84856" d="M189.974,117.988c-.041.373-1.035,4.8-1.035,4.8" transform="translate(-161.74 -90.68)" fill="none" stroke="#fff" stroke-width="0.5"/>
  <line id="Línea_851" data-name="Línea 851" x1="0.568" y2="2.69" transform="translate(29.187 28.653)" fill="none" stroke="#fff" stroke-width="0.5"/>
  <path id="Trazado_84857" data-name="Trazado 84857" d="M464.852,134.136s4.156-2.04,4.866-.758.284.758.284.758a1.086,1.086,0,0,1,.958-1.7,10.236,10.236,0,0,1,2.928,0" transform="translate(-347.678 -100.105)" fill="none" stroke="#6770c6" stroke-width="2"/>
</svg>
