<svg xmlns="http://www.w3.org/2000/svg" xmlns:xlink="http://www.w3.org/1999/xlink" width="30.833" height="30.846" viewBox="0 0 30.833 30.846">
  <defs>
    <clipPath id="clip-path">
      <rect id="Rectángulo_15989" data-name="Rectángulo 15989" width="30.833" height="30.846" fill="#8874d4"/>
    </clipPath>
  </defs>
  <g id="Grupo_49585" data-name="Grupo 49585" transform="translate(0 0)">
    <g id="Grupo_49584" data-name="Grupo 49584" transform="translate(0 0)" clip-path="url(#clip-path)">
      <path id="Trazado_61482" data-name="Trazado 61482" d="M15.084,30.846A15.111,15.111,0,0,1,4.574,26.34,14.961,14.961,0,0,1,.065,16.747,14.9,14.9,0,0,1,4.212,4.858,14.812,14.812,0,0,1,14.79.014a14.931,14.931,0,0,1,11.3,4.27A14.866,14.866,0,0,1,30.75,13.8a15.028,15.028,0,0,1-3.883,11.923,15.512,15.512,0,0,1-11.782,5.119m4.018-7.7a5.386,5.386,0,0,0,.747-.065A5.585,5.585,0,0,0,22.5,21.767a1.728,1.728,0,0,0,.443-.547,1.972,1.972,0,0,0-.382-2.241c-.509-.475-.981-.989-1.486-1.469a3.064,3.064,0,0,0-.69-.5,2.079,2.079,0,0,0-.847-.134,1.562,1.562,0,0,0-1.247.521l-.757.761c-.406.408-.406.409-.942.231-.082-.027-.165-.052-.246-.083a6.915,6.915,0,0,1-3.223-2.682,5.691,5.691,0,0,1-.79-1.787.237.237,0,0,1,.066-.272c.3-.293.585-.605.9-.886a1.873,1.873,0,0,0,.663-1.642,1.589,1.589,0,0,0-.419-1.042c-.583-.575-1.176-1.141-1.767-1.709a1.563,1.563,0,0,0-.784-.48,6.554,6.554,0,0,0-.789-.076,1.161,1.161,0,0,0-.942.361,10.1,10.1,0,0,0-.8.947,3.59,3.59,0,0,0-.747,2.042c-.014.533.038,1.069.068,1.6A5.3,5.3,0,0,0,8.2,14.386a10.479,10.479,0,0,0,1.08,1.978,18.268,18.268,0,0,0,1.934,2.308,30.386,30.386,0,0,0,3.027,2.794,8.408,8.408,0,0,0,2.3,1.319,8.377,8.377,0,0,0,2.559.362" transform="translate(0 0)" fill="#8874d4"/>
    </g>
  </g>
</svg>
